<svg width="1049" height="170" viewBox="0 0 1049 170" fill="none" xmlns="http://www.w3.org/2000/svg">
<mask id="path-1-inside-1_119_165" fill="white">
<rect x="335" width="47" height="170" rx="4"/>
</mask>
<rect x="335" width="47" height="170" rx="4" stroke="#CF00CF" stroke-width="10" mask="url(#path-1-inside-1_119_165)"/>
<mask id="path-2-inside-2_119_165" fill="white">
<rect width="47" height="170" rx="4"/>
</mask>
<rect width="47" height="170" rx="4" stroke="#CF00CF" stroke-width="10" mask="url(#path-2-inside-2_119_165)"/>
<mask id="path-3-inside-3_119_165" fill="white">
<rect x="401" y="50" width="47" height="120" rx="4"/>
</mask>
<rect x="401" y="50" width="47" height="120" rx="4" stroke="#CF00CF" stroke-width="10" mask="url(#path-3-inside-3_119_165)"/>
<mask id="path-4-inside-4_119_165" fill="white">
<rect x="66" y="50" width="47" height="120" rx="4"/>
</mask>
<rect x="66" y="50" width="47" height="120" rx="4" stroke="#CF00CF" stroke-width="10" mask="url(#path-4-inside-4_119_165)"/>
<mask id="path-5-inside-5_119_165" fill="white">
<rect x="468" y="111" width="47" height="59" rx="4"/>
</mask>
<rect x="468" y="111" width="47" height="59" rx="4" stroke="#CF00CF" stroke-width="10" mask="url(#path-5-inside-5_119_165)"/>
<mask id="path-6-inside-6_119_165" fill="white">
<rect x="133" y="111" width="47" height="59" rx="4"/>
</mask>
<rect x="133" y="111" width="47" height="59" rx="4" stroke="#CF00CF" stroke-width="10" mask="url(#path-6-inside-6_119_165)"/>
<mask id="path-7-inside-7_119_165" fill="white">
<rect x="268" y="83" width="47" height="87" rx="4"/>
</mask>
<rect x="268" y="83" width="47" height="87" rx="4" stroke="#CF00CF" stroke-width="10" mask="url(#path-7-inside-7_119_165)"/>
<mask id="path-8-inside-8_119_165" fill="white">
<rect x="278" y="93" width="27" height="68" rx="4"/>
</mask>
<rect x="278" y="93" width="27" height="68" rx="4" fill="#380038" stroke="#CF00CF" stroke-width="10" mask="url(#path-8-inside-8_119_165)"/>
<mask id="path-9-inside-9_119_165" fill="white">
<rect x="345" y="10" width="27" height="151" rx="4"/>
</mask>
<rect x="345" y="10" width="27" height="151" rx="4" fill="#380038" stroke="#CF00CF" stroke-width="10" mask="url(#path-9-inside-9_119_165)"/>
<mask id="path-10-inside-10_119_165" fill="white">
<rect x="10" y="10" width="27" height="151" rx="4"/>
</mask>
<rect x="10" y="10" width="27" height="151" rx="4" fill="#380038" stroke="#CF00CF" stroke-width="10" mask="url(#path-10-inside-10_119_165)"/>
<mask id="path-11-inside-11_119_165" fill="white">
<rect x="411" y="60" width="27" height="101" rx="4"/>
</mask>
<rect x="411" y="60" width="27" height="101" rx="4" fill="#380038" stroke="#CF00CF" stroke-width="10" mask="url(#path-11-inside-11_119_165)"/>
<mask id="path-12-inside-12_119_165" fill="white">
<rect x="76" y="60" width="27" height="101" rx="4"/>
</mask>
<rect x="76" y="60" width="27" height="101" rx="4" fill="#380038" stroke="#CF00CF" stroke-width="10" mask="url(#path-12-inside-12_119_165)"/>
<mask id="path-13-inside-13_119_165" fill="white">
<rect x="478" y="120" width="27" height="41" rx="4"/>
</mask>
<rect x="478" y="120" width="27" height="41" rx="4" fill="#380038" stroke="#CF00CF" stroke-width="10" mask="url(#path-13-inside-13_119_165)"/>
<mask id="path-14-inside-14_119_165" fill="white">
<rect x="143" y="120" width="27" height="41" rx="4"/>
</mask>
<rect x="143" y="120" width="27" height="41" rx="4" fill="#380038" stroke="#CF00CF" stroke-width="10" mask="url(#path-14-inside-14_119_165)"/>
<mask id="path-15-inside-15_119_165" fill="white">
<rect x="545" y="149" width="27" height="12" rx="4"/>
</mask>
<rect x="545" y="149" width="27" height="12" rx="4" fill="#380038" stroke="#CF00CF" stroke-width="10" mask="url(#path-15-inside-15_119_165)"/>
<mask id="path-16-inside-16_119_165" fill="white">
<rect x="211" y="149" width="27" height="12" rx="4"/>
</mask>
<rect x="211" y="149" width="27" height="12" rx="4" fill="#380038" stroke="#CF00CF" stroke-width="10" mask="url(#path-16-inside-16_119_165)"/>
<mask id="path-17-inside-17_119_165" fill="white">
<rect x="611" y="93" width="27" height="68" rx="4"/>
</mask>
<rect x="611" y="93" width="27" height="68" rx="4" fill="#380038" stroke="#CF00CF" stroke-width="10" mask="url(#path-17-inside-17_119_165)"/>
<mask id="path-18-inside-18_119_165" fill="white">
<rect x="679" y="10" width="27" height="151" rx="4"/>
</mask>
<rect x="679" y="10" width="27" height="151" rx="4" fill="#380038" stroke="#CF00CF" stroke-width="10" mask="url(#path-18-inside-18_119_165)"/>
<mask id="path-19-inside-19_119_165" fill="white">
<rect x="745" y="60" width="27" height="101" rx="4"/>
</mask>
<rect x="745" y="60" width="27" height="101" rx="4" fill="#380038" stroke="#CF00CF" stroke-width="10" mask="url(#path-19-inside-19_119_165)"/>
<mask id="path-20-inside-20_119_165" fill="white">
<rect x="812" y="120" width="27" height="41" rx="4"/>
</mask>
<rect x="812" y="120" width="27" height="41" rx="4" fill="#380038" stroke="#CF00CF" stroke-width="10" mask="url(#path-20-inside-20_119_165)"/>
<mask id="path-21-inside-21_119_165" fill="white">
<rect x="878" y="149" width="27" height="12" rx="4"/>
</mask>
<rect x="878" y="149" width="27" height="12" rx="4" fill="#380038" stroke="#CF00CF" stroke-width="10" mask="url(#path-21-inside-21_119_165)"/>
<mask id="path-22-inside-22_119_165" fill="white">
<rect x="945" y="93" width="27" height="68" rx="4"/>
</mask>
<rect x="945" y="93" width="27" height="68" rx="4" fill="#380038" stroke="#CF00CF" stroke-width="10" mask="url(#path-22-inside-22_119_165)"/>
<mask id="path-23-inside-23_119_165" fill="white">
<rect x="1012" y="10" width="27" height="151" rx="4"/>
</mask>
<rect x="1012" y="10" width="27" height="151" rx="4" fill="#380038" stroke="#CF00CF" stroke-width="10" mask="url(#path-23-inside-23_119_165)"/>
<mask id="path-24-inside-24_119_165" fill="white">
<rect x="669" width="47" height="170" rx="4"/>
</mask>
<rect x="669" width="47" height="170" rx="4" stroke="#CF00CF" stroke-width="10" mask="url(#path-24-inside-24_119_165)"/>
<mask id="path-25-inside-25_119_165" fill="white">
<rect x="735" y="50" width="46" height="120" rx="4"/>
</mask>
<rect x="735" y="50" width="46" height="120" rx="4" stroke="#CF00CF" stroke-width="10" mask="url(#path-25-inside-25_119_165)"/>
<mask id="path-26-inside-26_119_165" fill="white">
<rect x="802" y="111" width="47" height="59" rx="4"/>
</mask>
<rect x="802" y="111" width="47" height="59" rx="4" stroke="#CF00CF" stroke-width="10" mask="url(#path-26-inside-26_119_165)"/>
<mask id="path-27-inside-27_119_165" fill="white">
<rect x="535" y="140" width="47" height="30" rx="4"/>
</mask>
<rect x="535" y="140" width="47" height="30" rx="4" stroke="#CF00CF" stroke-width="10" mask="url(#path-27-inside-27_119_165)"/>
<mask id="path-28-inside-28_119_165" fill="white">
<rect x="201" y="140" width="47" height="30" rx="4"/>
</mask>
<rect x="201" y="140" width="47" height="30" rx="4" stroke="#CF00CF" stroke-width="10" mask="url(#path-28-inside-28_119_165)"/>
<mask id="path-29-inside-29_119_165" fill="white">
<rect x="601" y="83" width="47" height="87" rx="4"/>
</mask>
<rect x="601" y="83" width="47" height="87" rx="4" stroke="#CF00CF" stroke-width="10" mask="url(#path-29-inside-29_119_165)"/>
<mask id="path-30-inside-30_119_165" fill="white">
<rect x="1002" width="47" height="170" rx="4"/>
</mask>
<rect x="1002" width="47" height="170" rx="4" stroke="#CF00CF" stroke-width="10" mask="url(#path-30-inside-30_119_165)"/>
<mask id="path-31-inside-31_119_165" fill="white">
<rect x="868" y="140" width="47" height="30" rx="4"/>
</mask>
<rect x="868" y="140" width="47" height="30" rx="4" stroke="#CF00CF" stroke-width="10" mask="url(#path-31-inside-31_119_165)"/>
<mask id="path-32-inside-32_119_165" fill="white">
<rect x="935" y="83" width="47" height="87" rx="4"/>
</mask>
<rect x="935" y="83" width="47" height="87" rx="4" stroke="#CF00CF" stroke-width="10" mask="url(#path-32-inside-32_119_165)"/>
</svg>
