<svg width="353" height="271" viewBox="0 0 353 271" fill="none" xmlns="http://www.w3.org/2000/svg">
<path d="M135.5 2.5C139.915 2.5 144.622 5.48671 149.32 12.0967C153.973 18.6426 158.266 28.2773 161.913 40.4072C169.197 64.6355 173.739 98.2566 173.739 135.5C173.739 172.743 169.197 206.364 161.913 230.593C158.266 242.723 153.973 252.357 149.32 258.903C144.622 265.513 139.915 268.5 135.5 268.5C131.085 268.5 126.379 265.513 121.681 258.903C117.028 252.357 112.735 242.723 109.088 230.593C101.804 206.364 97.2617 172.744 97.2617 135.5C97.2617 98.2565 101.804 64.6355 109.088 40.4072C112.735 28.2772 117.028 18.6426 121.681 12.0967C126.379 5.48685 131.085 2.50013 135.5 2.5Z" stroke="black" stroke-width="5"/>
<path d="M2.5 135.5C2.5 131.085 5.48671 126.378 12.0967 121.68C18.6426 117.027 28.2773 112.734 40.4072 109.087C64.6355 101.803 98.2566 97.2607 135.5 97.2607C172.743 97.2607 206.364 101.803 230.593 109.087C242.723 112.734 252.357 117.027 258.903 121.68C265.513 126.378 268.5 131.085 268.5 135.5C268.5 139.915 265.513 144.621 258.903 149.319C252.357 153.972 242.723 158.265 230.593 161.912C206.364 169.196 172.744 173.738 135.5 173.738C98.2565 173.738 64.6355 169.196 40.4072 161.912C28.2772 158.265 18.6426 153.972 12.0967 149.319C5.48685 144.621 2.50013 139.915 2.5 135.5Z" stroke="black" stroke-width="5"/>
<path d="M41.4556 229.555C38.3335 226.433 37.1174 220.993 38.469 212.997C39.8076 205.078 43.5848 195.229 49.5832 184.073C61.5644 161.791 82.1265 134.805 108.462 108.47C134.797 82.1353 161.782 61.5733 184.065 49.592C195.221 43.5936 205.069 39.8164 212.988 38.4779C220.984 37.1263 226.424 38.3423 229.546 41.4644C232.668 44.5865 233.883 50.0259 232.532 58.022C231.193 65.9409 227.416 75.7891 221.418 86.9451C209.436 109.228 188.874 136.213 162.539 162.548C136.204 188.883 109.219 209.445 86.9362 221.427C75.7802 227.425 65.9321 231.202 58.0132 232.541C50.0171 233.892 44.5777 232.677 41.4556 229.555Z" stroke="black" stroke-width="5"/>
<path d="M41.4549 41.4575C44.577 38.3355 50.0169 37.1194 58.0133 38.471C65.9321 39.8095 75.7804 43.5867 86.9363 49.5851C109.219 61.5664 136.204 82.1284 162.539 108.464C188.874 134.799 209.437 161.784 221.418 184.067C227.416 195.223 231.193 205.071 232.532 212.99C233.883 220.986 232.667 226.426 229.545 229.548C226.423 232.67 220.984 233.885 212.988 232.534C205.069 231.195 195.221 227.418 184.065 221.42C161.782 209.438 134.797 188.876 108.462 162.541C82.1265 136.206 61.5645 109.221 49.5832 86.9382C43.5848 75.7822 39.8076 65.934 38.4691 58.0152C37.1175 50.019 38.333 44.5797 41.4549 41.4575Z" stroke="black" stroke-width="5"/>
<path d="M217.5 2.5C221.915 2.5 226.622 5.48671 231.32 12.0967C235.973 18.6426 240.266 28.2773 243.913 40.4072C251.197 64.6355 255.739 98.2566 255.739 135.5C255.739 172.743 251.197 206.364 243.913 230.593C240.266 242.723 235.973 252.357 231.32 258.903C226.622 265.513 221.915 268.5 217.5 268.5C213.085 268.5 208.379 265.513 203.681 258.903C199.028 252.357 194.735 242.723 191.088 230.593C183.804 206.364 179.262 172.744 179.262 135.5C179.262 98.2565 183.804 64.6355 191.088 40.4072C194.735 28.2772 199.028 18.6426 203.681 12.0967C208.379 5.48685 213.085 2.50013 217.5 2.5Z" stroke="black" stroke-width="5"/>
<path d="M84.5 135.5C84.5 131.085 87.4867 126.378 94.0967 121.68C100.643 117.027 110.277 112.734 122.407 109.087C146.636 101.803 180.257 97.2607 217.5 97.2607C254.743 97.2607 288.364 101.803 312.593 109.087C324.723 112.734 334.357 117.027 340.903 121.68C347.513 126.378 350.5 131.085 350.5 135.5C350.5 139.915 347.513 144.621 340.903 149.319C334.357 153.972 324.723 158.265 312.593 161.912C288.364 169.196 254.744 173.738 217.5 173.738C180.256 173.738 146.636 169.196 122.407 161.912C110.277 158.265 100.643 153.972 94.0967 149.319C87.4869 144.621 84.5001 139.915 84.5 135.5Z" stroke="black" stroke-width="5"/>
<path d="M123.456 229.555C120.334 226.433 119.117 220.993 120.469 212.997C121.808 205.078 125.585 195.229 131.583 184.073C143.564 161.791 164.126 134.805 190.462 108.47C216.797 82.1353 243.782 61.5733 266.065 49.592C277.221 43.5936 287.069 39.8164 294.988 38.4779C302.984 37.1263 308.424 38.3423 311.546 41.4644C314.668 44.5865 315.883 50.0259 314.532 58.022C313.193 65.9409 309.416 75.7891 303.418 86.9451C291.436 109.228 270.874 136.213 244.539 162.548C218.204 188.883 191.219 209.445 168.936 221.427C157.78 227.425 147.932 231.202 140.013 232.541C132.017 233.892 126.578 232.677 123.456 229.555Z" stroke="black" stroke-width="5"/>
<path d="M123.455 41.4575C126.577 38.3355 132.017 37.1194 140.013 38.471C147.932 39.8095 157.78 43.5867 168.936 49.5851C191.219 61.5664 218.204 82.1284 244.539 108.464C270.874 134.799 291.437 161.784 303.418 184.067C309.416 195.223 313.193 205.071 314.532 212.99C315.883 220.986 314.667 226.426 311.545 229.548C308.423 232.67 302.984 233.885 294.988 232.534C287.069 231.195 277.221 227.418 266.065 221.42C243.782 209.438 216.797 188.876 190.462 162.541C164.126 136.206 143.564 109.221 131.583 86.9382C125.585 75.7822 121.808 65.934 120.469 58.0152C119.118 50.019 120.333 44.5797 123.455 41.4575Z" stroke="black" stroke-width="5"/>
</svg>
