<svg width="271" height="271" viewBox="0 0 271 271" fill="none" xmlns="http://www.w3.org/2000/svg">
<path d="M135.5 2.5C139.915 2.5 144.622 5.48671 149.32 12.0967C153.973 18.6426 158.266 28.2773 161.913 40.4072C169.197 64.6355 173.739 98.2566 173.739 135.5C173.739 172.743 169.197 206.364 161.913 230.593C158.266 242.723 153.973 252.357 149.32 258.903C144.622 265.513 139.915 268.5 135.5 268.5C131.085 268.5 126.379 265.513 121.681 258.903C117.028 252.357 112.735 242.723 109.088 230.593C101.804 206.364 97.2617 172.744 97.2617 135.5C97.2617 98.2565 101.804 64.6355 109.088 40.4072C112.735 28.2772 117.028 18.6426 121.681 12.0967C126.379 5.48685 131.085 2.50013 135.5 2.5Z" stroke="white" stroke-width="5"/>
<path d="M2.5 135.5C2.5 131.085 5.48671 126.378 12.0967 121.68C18.6426 117.027 28.2773 112.734 40.4072 109.087C64.6355 101.803 98.2566 97.2607 135.5 97.2607C172.743 97.2607 206.364 101.803 230.593 109.087C242.723 112.734 252.357 117.027 258.903 121.68C265.513 126.378 268.5 131.085 268.5 135.5C268.5 139.915 265.513 144.621 258.903 149.319C252.357 153.972 242.723 158.265 230.593 161.912C206.364 169.196 172.744 173.738 135.5 173.738C98.2565 173.738 64.6355 169.196 40.4072 161.912C28.2772 158.265 18.6426 153.972 12.0967 149.319C5.48685 144.621 2.50013 139.915 2.5 135.5Z" stroke="white" stroke-width="5"/>
<path d="M41.4556 229.555C38.3335 226.433 37.1174 220.993 38.469 212.997C39.8076 205.078 43.5848 195.229 49.5832 184.073C61.5644 161.791 82.1265 134.805 108.462 108.47C134.797 82.1353 161.782 61.5733 184.065 49.592C195.221 43.5936 205.069 39.8164 212.988 38.4779C220.984 37.1263 226.424 38.3423 229.546 41.4644C232.668 44.5865 233.883 50.0259 232.532 58.022C231.193 65.9409 227.416 75.7891 221.418 86.9451C209.436 109.228 188.874 136.213 162.539 162.548C136.204 188.883 109.219 209.445 86.9362 221.427C75.7802 227.425 65.9321 231.202 58.0132 232.541C50.0171 233.892 44.5777 232.677 41.4556 229.555Z" stroke="white" stroke-width="5"/>
<path d="M41.4549 41.4575C44.577 38.3355 50.0169 37.1194 58.0133 38.471C65.9321 39.8095 75.7804 43.5867 86.9363 49.5851C109.219 61.5664 136.204 82.1284 162.539 108.464C188.874 134.799 209.437 161.784 221.418 184.067C227.416 195.223 231.193 205.071 232.532 212.99C233.883 220.986 232.667 226.426 229.545 229.548C226.423 232.67 220.984 233.885 212.988 232.534C205.069 231.195 195.221 227.418 184.065 221.42C161.782 209.438 134.797 188.876 108.462 162.541C82.1265 136.206 61.5645 109.221 49.5832 86.9382C43.5848 75.7822 39.8076 65.934 38.4691 58.0152C37.1175 50.019 38.333 44.5797 41.4549 41.4575Z" stroke="white" stroke-width="5"/>
</svg>
