<svg width="915" height="305" viewBox="0 0 915 305" fill="none" xmlns="http://www.w3.org/2000/svg">
<mask id="path-1-inside-1_125_1891" fill="white">
<rect x="133" y="254" width="100" height="41" rx="4"/>
</mask>
<rect x="133" y="254" width="100" height="41" rx="4" fill="#380038" stroke="#CF00CF" stroke-width="10" mask="url(#path-1-inside-1_125_1891)"/>
<mask id="path-2-inside-2_125_1891" fill="white">
<rect x="133" y="71" width="100" height="41" rx="4"/>
</mask>
<rect x="133" y="71" width="100" height="41" rx="4" fill="#380038" stroke="#CF00CF" stroke-width="10" mask="url(#path-2-inside-2_125_1891)"/>
<mask id="path-3-inside-3_125_1891" fill="white">
<rect x="122" y="61" width="122" height="61" rx="4"/>
</mask>
<rect x="122" y="61" width="122" height="61" rx="4" stroke="#CF00CF" stroke-width="10" mask="url(#path-3-inside-3_125_1891)"/>
<mask id="path-4-inside-4_125_1891" fill="white">
<rect x="122" y="244" width="122" height="61" rx="4"/>
</mask>
<rect x="122" y="244" width="122" height="61" rx="4" stroke="#CF00CF" stroke-width="10" mask="url(#path-4-inside-4_125_1891)"/>
<mask id="path-5-inside-5_125_1891" fill="white">
<rect x="793" width="122" height="61" rx="4"/>
</mask>
<rect x="793" width="122" height="61" rx="4" stroke="#CF00CF" stroke-width="10" mask="url(#path-5-inside-5_125_1891)"/>
<mask id="path-6-inside-6_125_1891" fill="white">
<rect x="804" y="10" width="100" height="41" rx="4"/>
</mask>
<rect x="804" y="10" width="100" height="41" rx="4" fill="#380038" stroke="#CF00CF" stroke-width="10" mask="url(#path-6-inside-6_125_1891)"/>
<mask id="path-7-inside-7_125_1891" fill="white">
<rect x="804" y="193" width="100" height="41" rx="4"/>
</mask>
<rect x="804" y="193" width="100" height="41" rx="4" fill="#380038" stroke="#CF00CF" stroke-width="10" mask="url(#path-7-inside-7_125_1891)"/>
<mask id="path-8-inside-8_125_1891" fill="white">
<rect x="681" y="171" width="100" height="41" rx="4" transform="rotate(-90 681 171)"/>
</mask>
<rect x="681" y="171" width="100" height="41" rx="4" transform="rotate(-90 681 171)" fill="#380038" stroke="#CF00CF" stroke-width="10" mask="url(#path-8-inside-8_125_1891)"/>
<mask id="path-9-inside-9_125_1891" fill="white">
<rect x="793" y="122" width="61" height="61" rx="4"/>
</mask>
<rect x="793" y="122" width="61" height="61" rx="4" stroke="#380038" stroke-width="10" mask="url(#path-9-inside-9_125_1891)"/>
<mask id="path-10-inside-10_125_1891" fill="white">
<rect x="802" y="132" width="42" height="42" rx="4"/>
</mask>
<rect x="802" y="132" width="42" height="42" rx="4" fill="#CF00CF" stroke="#380038" stroke-width="10" mask="url(#path-10-inside-10_125_1891)"/>
<mask id="path-11-inside-11_125_1891" fill="white">
<rect x="863" y="71" width="42" height="42" rx="4"/>
</mask>
<rect x="863" y="71" width="42" height="42" rx="4" fill="#CF00CF" stroke="#380038" stroke-width="10" mask="url(#path-11-inside-11_125_1891)"/>
<mask id="path-12-inside-12_125_1891" fill="white">
<rect x="193" y="132" width="42" height="42" rx="4"/>
</mask>
<rect x="193" y="132" width="42" height="42" rx="4" stroke="#380038" stroke-width="10" mask="url(#path-12-inside-12_125_1891)"/>
<mask id="path-13-inside-13_125_1891" fill="white">
<rect x="192" y="193" width="42" height="42" rx="4"/>
</mask>
<rect x="192" y="193" width="42" height="42" rx="4" fill="#CF00CF" stroke="#380038" stroke-width="10" mask="url(#path-13-inside-13_125_1891)"/>
<mask id="path-14-inside-14_125_1891" fill="white">
<rect x="619" y="10" width="42" height="42" rx="4"/>
</mask>
<rect x="619" y="10" width="42" height="42" rx="4" fill="#380038" stroke="#CF00CF" stroke-width="10" mask="url(#path-14-inside-14_125_1891)"/>
<mask id="path-15-inside-15_125_1891" fill="white">
<rect x="680" y="10" width="42" height="42" rx="4"/>
</mask>
<rect x="680" y="10" width="42" height="42" rx="4" fill="#CF00CF" stroke="#380038" stroke-width="10" mask="url(#path-15-inside-15_125_1891)"/>
<mask id="path-16-inside-16_125_1891" fill="white">
<rect x="742" y="9" width="42" height="42" rx="4"/>
</mask>
<rect x="742" y="9" width="42" height="42" rx="4" fill="#380038" stroke="#CF00CF" stroke-width="10" mask="url(#path-16-inside-16_125_1891)"/>
<mask id="path-17-inside-17_125_1891" fill="white">
<rect x="619" y="71" width="42" height="42" rx="4"/>
</mask>
<rect x="619" y="71" width="42" height="42" rx="4" stroke="#380038" stroke-width="10" mask="url(#path-17-inside-17_125_1891)"/>
<mask id="path-18-inside-18_125_1891" fill="white">
<rect x="680" y="193" width="42" height="42" rx="4"/>
</mask>
<rect x="680" y="193" width="42" height="42" rx="4" fill="#CF00CF" stroke="#380038" stroke-width="10" mask="url(#path-18-inside-18_125_1891)"/>
<mask id="path-19-inside-19_125_1891" fill="white">
<rect x="741" y="193" width="42" height="42" rx="4"/>
</mask>
<rect x="741" y="193" width="42" height="42" rx="4" fill="#380038" stroke="#CF00CF" stroke-width="10" mask="url(#path-19-inside-19_125_1891)"/>
<mask id="path-20-inside-20_125_1891" fill="white">
<rect x="619" y="254" width="42" height="42" rx="4"/>
</mask>
<rect x="619" y="254" width="42" height="42" rx="4" stroke="#380038" stroke-width="10" mask="url(#path-20-inside-20_125_1891)"/>
<mask id="path-21-inside-21_125_1891" fill="white">
<rect x="619" y="193" width="42" height="42" rx="4"/>
</mask>
<rect x="619" y="193" width="42" height="42" rx="4" fill="#380038" stroke="#CF00CF" stroke-width="10" mask="url(#path-21-inside-21_125_1891)"/>
<mask id="path-22-inside-22_125_1891" fill="white">
<rect x="680" y="254" width="42" height="42" rx="4"/>
</mask>
<rect x="680" y="254" width="42" height="42" rx="4" fill="#380038" stroke="#CF00CF" stroke-width="10" mask="url(#path-22-inside-22_125_1891)"/>
<mask id="path-23-inside-23_125_1891" fill="white">
<rect x="193" y="9" width="42" height="42" rx="4"/>
</mask>
<rect x="193" y="9" width="42" height="42" rx="4" fill="#CF00CF" stroke="#380038" stroke-width="10" mask="url(#path-23-inside-23_125_1891)"/>
<mask id="path-24-inside-24_125_1891" fill="white">
<rect x="863" y="253" width="42" height="42" rx="4"/>
</mask>
<rect x="863" y="253" width="42" height="42" rx="4" fill="#CF00CF" stroke="#380038" stroke-width="10" mask="url(#path-24-inside-24_125_1891)"/>
<mask id="path-25-inside-25_125_1891" fill="white">
<rect x="854" y="61" width="61" height="61" rx="4"/>
</mask>
<rect x="854" y="61" width="61" height="61" rx="4" stroke="#380038" stroke-width="10" mask="url(#path-25-inside-25_125_1891)"/>
<mask id="path-26-inside-26_125_1891" fill="white">
<rect x="183" width="61" height="61" rx="4"/>
</mask>
<rect x="183" width="61" height="61" rx="4" stroke="#380038" stroke-width="10" mask="url(#path-26-inside-26_125_1891)"/>
<mask id="path-27-inside-27_125_1891" fill="white">
<rect x="183" y="122" width="61" height="61" rx="4"/>
</mask>
<rect x="183" y="122" width="61" height="61" rx="4" stroke="white" stroke-width="10" mask="url(#path-27-inside-27_125_1891)"/>
<mask id="path-28-inside-28_125_1891" fill="white">
<rect x="610" width="61" height="61" rx="4"/>
</mask>
<rect x="610" width="61" height="61" rx="4" stroke="#CF00CF" stroke-width="10" mask="url(#path-28-inside-28_125_1891)"/>
<mask id="path-29-inside-29_125_1891" fill="white">
<rect x="671" width="61" height="61" rx="4"/>
</mask>
<rect x="671" width="61" height="61" rx="4" stroke="#380038" stroke-width="10" mask="url(#path-29-inside-29_125_1891)"/>
<mask id="path-30-inside-30_125_1891" fill="white">
<rect x="610" y="61" width="61" height="61" rx="4"/>
</mask>
<rect x="610" y="61" width="61" height="61" rx="4" stroke="white" stroke-width="10" mask="url(#path-30-inside-30_125_1891)"/>
<mask id="path-31-inside-31_125_1891" fill="white">
<rect x="671" y="61" width="61" height="122" rx="4"/>
</mask>
<rect x="671" y="61" width="61" height="122" rx="4" stroke="#CF00CF" stroke-width="10" mask="url(#path-31-inside-31_125_1891)"/>
<mask id="path-32-inside-32_125_1891" fill="white">
<rect x="732" width="61" height="61" rx="4"/>
</mask>
<rect x="732" width="61" height="61" rx="4" stroke="#CF00CF" stroke-width="10" mask="url(#path-32-inside-32_125_1891)"/>
<mask id="path-33-inside-33_125_1891" fill="white">
<rect x="793" y="183" width="122" height="61" rx="4"/>
</mask>
<rect x="793" y="183" width="122" height="61" rx="4" stroke="#CF00CF" stroke-width="10" mask="url(#path-33-inside-33_125_1891)"/>
<mask id="path-34-inside-34_125_1891" fill="white">
<rect x="854" y="244" width="61" height="61" rx="4"/>
</mask>
<rect x="854" y="244" width="61" height="61" rx="4" stroke="#380038" stroke-width="10" mask="url(#path-34-inside-34_125_1891)"/>
<mask id="path-35-inside-35_125_1891" fill="white">
<rect x="183" y="183" width="61" height="61" rx="4"/>
</mask>
<rect x="183" y="183" width="61" height="61" rx="4" stroke="#380038" stroke-width="10" mask="url(#path-35-inside-35_125_1891)"/>
<mask id="path-36-inside-36_125_1891" fill="white">
<rect x="610" y="183" width="61" height="61" rx="4"/>
</mask>
<rect x="610" y="183" width="61" height="61" rx="4" stroke="#CF00CF" stroke-width="10" mask="url(#path-36-inside-36_125_1891)"/>
<mask id="path-37-inside-37_125_1891" fill="white">
<rect x="671" y="183" width="61" height="61" rx="4"/>
</mask>
<rect x="671" y="183" width="61" height="61" rx="4" stroke="#380038" stroke-width="10" mask="url(#path-37-inside-37_125_1891)"/>
<mask id="path-38-inside-38_125_1891" fill="white">
<rect x="610" y="244" width="61" height="61" rx="4"/>
</mask>
<rect x="610" y="244" width="61" height="61" rx="4" stroke="white" stroke-width="10" mask="url(#path-38-inside-38_125_1891)"/>
<mask id="path-39-inside-39_125_1891" fill="white">
<rect x="671" y="244" width="61" height="61" rx="4"/>
</mask>
<rect x="671" y="244" width="61" height="61" rx="4" stroke="#CF00CF" stroke-width="10" mask="url(#path-39-inside-39_125_1891)"/>
<mask id="path-40-inside-40_125_1891" fill="white">
<rect x="732" y="183" width="61" height="61" rx="4"/>
</mask>
<rect x="732" y="183" width="61" height="61" rx="4" stroke="#CF00CF" stroke-width="10" mask="url(#path-40-inside-40_125_1891)"/>
<mask id="path-41-inside-41_125_1891" fill="white">
<rect x="558" y="70" width="42" height="42" rx="4"/>
</mask>
<rect x="558" y="70" width="42" height="42" rx="4" fill="#CF00CF" stroke="#380038" stroke-width="10" mask="url(#path-41-inside-41_125_1891)"/>
<mask id="path-42-inside-42_125_1891" fill="white">
<rect x="558" y="252" width="42" height="42" rx="4"/>
</mask>
<rect x="558" y="252" width="42" height="42" rx="4" fill="#CF00CF" stroke="#380038" stroke-width="10" mask="url(#path-42-inside-42_125_1891)"/>
<mask id="path-43-inside-43_125_1891" fill="white">
<rect x="549" y="61" width="61" height="61" rx="4"/>
</mask>
<rect x="549" y="61" width="61" height="61" rx="4" stroke="#380038" stroke-width="10" mask="url(#path-43-inside-43_125_1891)"/>
<mask id="path-44-inside-44_125_1891" fill="white">
<rect x="549" y="244" width="61" height="61" rx="4"/>
</mask>
<rect x="549" y="244" width="61" height="61" rx="4" stroke="#380038" stroke-width="10" mask="url(#path-44-inside-44_125_1891)"/>
<mask id="path-45-inside-45_125_1891" fill="white">
<rect x="497" y="193" width="42" height="42" rx="4"/>
</mask>
<rect x="497" y="193" width="42" height="42" rx="4" fill="#CF00CF" stroke="#380038" stroke-width="10" mask="url(#path-45-inside-45_125_1891)"/>
<mask id="path-46-inside-46_125_1891" fill="white">
<rect x="497" y="132" width="42" height="42" rx="4"/>
</mask>
<rect x="497" y="132" width="42" height="42" rx="4" fill="#380038" stroke="#CF00CF" stroke-width="10" mask="url(#path-46-inside-46_125_1891)"/>
<mask id="path-47-inside-47_125_1891" fill="white">
<rect x="497" y="70" width="42" height="42" rx="4"/>
</mask>
<rect x="497" y="70" width="42" height="42" rx="4" stroke="#380038" stroke-width="10" mask="url(#path-47-inside-47_125_1891)"/>
<mask id="path-48-inside-48_125_1891" fill="white">
<rect x="497" y="9" width="42" height="42" rx="4"/>
</mask>
<rect x="497" y="9" width="42" height="42" rx="4" fill="#CF00CF" stroke="#380038" stroke-width="10" mask="url(#path-48-inside-48_125_1891)"/>
<mask id="path-49-inside-49_125_1891" fill="white">
<rect x="497" y="254" width="42" height="42" rx="4"/>
</mask>
<rect x="497" y="254" width="42" height="42" rx="4" stroke="#380038" stroke-width="10" mask="url(#path-49-inside-49_125_1891)"/>
<mask id="path-50-inside-50_125_1891" fill="white">
<rect x="488" width="61" height="61" rx="4"/>
</mask>
<rect x="488" width="61" height="61" rx="4" stroke="#380038" stroke-width="10" mask="url(#path-50-inside-50_125_1891)"/>
<mask id="path-51-inside-51_125_1891" fill="white">
<rect x="488" y="61" width="61" height="61" rx="4"/>
</mask>
<rect x="488" y="61" width="61" height="61" rx="4" stroke="white" stroke-width="10" mask="url(#path-51-inside-51_125_1891)"/>
<mask id="path-52-inside-52_125_1891" fill="white">
<rect x="488" y="122" width="61" height="61" rx="4"/>
</mask>
<rect x="488" y="122" width="61" height="61" rx="4" stroke="#CF00CF" stroke-width="10" mask="url(#path-52-inside-52_125_1891)"/>
<mask id="path-53-inside-53_125_1891" fill="white">
<rect x="488" y="183" width="61" height="61" rx="4"/>
</mask>
<rect x="488" y="183" width="61" height="61" rx="4" stroke="#380038" stroke-width="10" mask="url(#path-53-inside-53_125_1891)"/>
<mask id="path-54-inside-54_125_1891" fill="white">
<rect x="488" y="244" width="61" height="61" rx="4"/>
</mask>
<rect x="488" y="244" width="61" height="61" rx="4" stroke="white" stroke-width="10" mask="url(#path-54-inside-54_125_1891)"/>
<mask id="path-55-inside-55_125_1891" fill="white">
<rect x="437" y="172" width="100" height="41" rx="4" transform="rotate(-90 437 172)"/>
</mask>
<rect x="437" y="172" width="100" height="41" rx="4" transform="rotate(-90 437 172)" fill="#CF00CF" stroke="#380038" stroke-width="10" mask="url(#path-55-inside-55_125_1891)"/>
<mask id="path-56-inside-56_125_1891" fill="white">
<rect x="436" y="254" width="42" height="42" rx="4"/>
</mask>
<rect x="436" y="254" width="42" height="42" rx="4" fill="#CF00CF" stroke="#380038" stroke-width="10" mask="url(#path-56-inside-56_125_1891)"/>
<mask id="path-57-inside-57_125_1891" fill="white">
<rect x="427" y="61" width="61" height="122" rx="4"/>
</mask>
<rect x="427" y="61" width="61" height="122" rx="4" stroke="#380038" stroke-width="10" mask="url(#path-57-inside-57_125_1891)"/>
<mask id="path-58-inside-58_125_1891" fill="white">
<rect x="427" y="244" width="61" height="61" rx="4"/>
</mask>
<rect x="427" y="244" width="61" height="61" rx="4" stroke="#380038" stroke-width="10" mask="url(#path-58-inside-58_125_1891)"/>
<mask id="path-59-inside-59_125_1891" fill="white">
<rect x="375" y="10" width="42" height="42" rx="4"/>
</mask>
<rect x="375" y="10" width="42" height="42" rx="4" fill="#380038" stroke="#CF00CF" stroke-width="10" mask="url(#path-59-inside-59_125_1891)"/>
<mask id="path-60-inside-60_125_1891" fill="white">
<rect x="375" y="132" width="42" height="42" rx="4"/>
</mask>
<rect x="375" y="132" width="42" height="42" rx="4" stroke="#380038" stroke-width="10" mask="url(#path-60-inside-60_125_1891)"/>
<mask id="path-61-inside-61_125_1891" fill="white">
<rect x="375" y="193" width="42" height="42" rx="4"/>
</mask>
<rect x="375" y="193" width="42" height="42" rx="4" fill="#380038" stroke="#CF00CF" stroke-width="10" mask="url(#path-61-inside-61_125_1891)"/>
<mask id="path-62-inside-62_125_1891" fill="white">
<rect x="366" width="61" height="61" rx="4"/>
</mask>
<rect x="366" width="61" height="61" rx="4" stroke="#CF00CF" stroke-width="10" mask="url(#path-62-inside-62_125_1891)"/>
<mask id="path-63-inside-63_125_1891" fill="white">
<rect x="366" y="122" width="61" height="61" rx="4"/>
</mask>
<rect x="366" y="122" width="61" height="61" rx="4" stroke="white" stroke-width="10" mask="url(#path-63-inside-63_125_1891)"/>
<mask id="path-64-inside-64_125_1891" fill="white">
<rect x="366" y="183" width="61" height="61" rx="4"/>
</mask>
<rect x="366" y="183" width="61" height="61" rx="4" stroke="#CF00CF" stroke-width="10" mask="url(#path-64-inside-64_125_1891)"/>
<mask id="path-65-inside-65_125_1891" fill="white">
<rect x="315" y="112" width="100" height="41" rx="4" transform="rotate(-90 315 112)"/>
</mask>
<rect x="315" y="112" width="100" height="41" rx="4" transform="rotate(-90 315 112)" fill="black" stroke="white" stroke-width="10" mask="url(#path-65-inside-65_125_1891)"/>
<mask id="path-66-inside-66_125_1891" fill="white">
<rect x="315" y="294" width="100" height="41" rx="4" transform="rotate(-90 315 294)"/>
</mask>
<rect x="315" y="294" width="100" height="41" rx="4" transform="rotate(-90 315 294)" fill="black" stroke="white" stroke-width="10" mask="url(#path-66-inside-66_125_1891)"/>
<mask id="path-67-inside-67_125_1891" fill="white">
<rect x="314" y="132" width="42" height="42" rx="4"/>
</mask>
<rect x="314" y="132" width="42" height="42" rx="4" fill="#CF00CF" stroke="#380038" stroke-width="10" mask="url(#path-67-inside-67_125_1891)"/>
<mask id="path-68-inside-68_125_1891" fill="white">
<rect x="305" width="61" height="122" rx="4"/>
</mask>
<rect x="305" width="61" height="122" rx="4" stroke="white" stroke-width="10" mask="url(#path-68-inside-68_125_1891)"/>
<mask id="path-69-inside-69_125_1891" fill="white">
<rect x="305" y="122" width="61" height="61" rx="4"/>
</mask>
<rect x="305" y="122" width="61" height="61" rx="4" stroke="#380038" stroke-width="10" mask="url(#path-69-inside-69_125_1891)"/>
<mask id="path-70-inside-70_125_1891" fill="white">
<rect x="305" y="183" width="61" height="122" rx="4"/>
</mask>
<rect x="305" y="183" width="61" height="122" rx="4" stroke="white" stroke-width="10" mask="url(#path-70-inside-70_125_1891)"/>
<mask id="path-71-inside-71_125_1891" fill="white">
<rect x="253" y="71" width="42" height="42" rx="4"/>
</mask>
<rect x="253" y="71" width="42" height="42" rx="4" fill="#CF00CF" stroke="#380038" stroke-width="10" mask="url(#path-71-inside-71_125_1891)"/>
<mask id="path-72-inside-72_125_1891" fill="white">
<rect x="253" y="193" width="42" height="42" rx="4"/>
</mask>
<rect x="253" y="193" width="42" height="42" rx="4" fill="#380038" stroke="#CF00CF" stroke-width="10" mask="url(#path-72-inside-72_125_1891)"/>
<mask id="path-73-inside-73_125_1891" fill="white">
<rect x="253" y="254" width="42" height="42" rx="4"/>
</mask>
<rect x="253" y="254" width="42" height="42" rx="4" fill="#CF00CF" stroke="#380038" stroke-width="10" mask="url(#path-73-inside-73_125_1891)"/>
<mask id="path-74-inside-74_125_1891" fill="white">
<rect x="253" y="10" width="42" height="42" rx="4"/>
</mask>
<rect x="253" y="10" width="42" height="42" rx="4" fill="#380038" stroke="#CF00CF" stroke-width="10" mask="url(#path-74-inside-74_125_1891)"/>
<mask id="path-75-inside-75_125_1891" fill="white">
<rect x="244" width="61" height="61" rx="4"/>
</mask>
<rect x="244" width="61" height="61" rx="4" stroke="#CF00CF" stroke-width="10" mask="url(#path-75-inside-75_125_1891)"/>
<mask id="path-76-inside-76_125_1891" fill="white">
<rect x="244" y="61" width="61" height="61" rx="4"/>
</mask>
<rect x="244" y="61" width="61" height="61" rx="4" stroke="#380038" stroke-width="10" mask="url(#path-76-inside-76_125_1891)"/>
<mask id="path-77-inside-77_125_1891" fill="white">
<rect x="244" y="183" width="61" height="61" rx="4"/>
</mask>
<rect x="244" y="183" width="61" height="61" rx="4" stroke="#CF00CF" stroke-width="10" mask="url(#path-77-inside-77_125_1891)"/>
<mask id="path-78-inside-78_125_1891" fill="white">
<rect x="244" y="244" width="61" height="61" rx="4"/>
</mask>
<rect x="244" y="244" width="61" height="61" rx="4" stroke="#380038" stroke-width="10" mask="url(#path-78-inside-78_125_1891)"/>
<mask id="path-79-inside-79_125_1891" fill="white">
<rect x="131" y="132" width="42" height="42" rx="4"/>
</mask>
<rect x="131" y="132" width="42" height="42" rx="4" fill="#CF00CF" stroke="#380038" stroke-width="10" mask="url(#path-79-inside-79_125_1891)"/>
<mask id="path-80-inside-80_125_1891" fill="white">
<rect x="122" y="122" width="61" height="61" rx="4"/>
</mask>
<rect x="122" y="122" width="61" height="61" rx="4" stroke="#380038" stroke-width="10" mask="url(#path-80-inside-80_125_1891)"/>
<mask id="path-81-inside-81_125_1891" fill="white">
<rect x="71" y="111" width="100" height="41" rx="4" transform="rotate(-90 71 111)"/>
</mask>
<rect x="71" y="111" width="100" height="41" rx="4" transform="rotate(-90 71 111)" fill="#CF00CF" stroke="#380038" stroke-width="10" mask="url(#path-81-inside-81_125_1891)"/>
<mask id="path-82-inside-82_125_1891" fill="white">
<rect x="71" y="294" width="100" height="41" rx="4" transform="rotate(-90 71 294)"/>
</mask>
<rect x="71" y="294" width="100" height="41" rx="4" transform="rotate(-90 71 294)" fill="#CF00CF" stroke="#380038" stroke-width="10" mask="url(#path-82-inside-82_125_1891)"/>
<mask id="path-83-inside-83_125_1891" fill="white">
<rect x="70" y="132" width="42" height="42" rx="4"/>
</mask>
<rect x="70" y="132" width="42" height="42" rx="4" fill="#380038" stroke="#CF00CF" stroke-width="10" mask="url(#path-83-inside-83_125_1891)"/>
<mask id="path-84-inside-84_125_1891" fill="white">
<rect x="61" width="61" height="122" rx="4"/>
</mask>
<rect x="61" width="61" height="122" rx="4" stroke="#380038" stroke-width="10" mask="url(#path-84-inside-84_125_1891)"/>
<mask id="path-85-inside-85_125_1891" fill="white">
<rect x="61" y="122" width="61" height="61" rx="4"/>
</mask>
<rect x="61" y="122" width="61" height="61" rx="4" stroke="#CF00CF" stroke-width="10" mask="url(#path-85-inside-85_125_1891)"/>
<mask id="path-86-inside-86_125_1891" fill="white">
<rect x="61" y="183" width="61" height="122" rx="4"/>
</mask>
<rect x="61" y="183" width="61" height="122" rx="4" stroke="#380038" stroke-width="10" mask="url(#path-86-inside-86_125_1891)"/>
<mask id="path-87-inside-87_125_1891" fill="white">
<rect x="10" y="172" width="100" height="41" rx="4" transform="rotate(-90 10 172)"/>
</mask>
<rect x="10" y="172" width="100" height="41" rx="4" transform="rotate(-90 10 172)" fill="black" stroke="white" stroke-width="10" mask="url(#path-87-inside-87_125_1891)"/>
<mask id="path-88-inside-88_125_1891" fill="white">
<rect x="9" y="254" width="42" height="42" rx="4"/>
</mask>
<rect x="9" y="254" width="42" height="42" rx="4" stroke="#380038" stroke-width="10" mask="url(#path-88-inside-88_125_1891)"/>
<mask id="path-89-inside-89_125_1891" fill="white">
<rect y="61" width="61" height="122" rx="4"/>
</mask>
<rect y="61" width="61" height="122" rx="4" stroke="white" stroke-width="10" mask="url(#path-89-inside-89_125_1891)"/>
<mask id="path-90-inside-90_125_1891" fill="white">
<rect y="244" width="61" height="61" rx="4"/>
</mask>
<rect y="244" width="61" height="61" rx="4" stroke="white" stroke-width="10" mask="url(#path-90-inside-90_125_1891)"/>
</svg>
