<svg width="915" height="305" viewBox="0 0 915 305" fill="none" xmlns="http://www.w3.org/2000/svg">
<mask id="path-1-inside-1_123_477" fill="white">
<rect x="61" width="122" height="61" rx="4"/>
</mask>
<rect x="61" width="122" height="61" rx="4" stroke="#CF00CF" stroke-width="10" mask="url(#path-1-inside-1_123_477)"/>
<mask id="path-2-inside-2_123_477" fill="white">
<rect x="72" y="10" width="100" height="41" rx="4"/>
</mask>
<rect x="72" y="10" width="100" height="41" rx="4" fill="#380038" stroke="#CF00CF" stroke-width="10" mask="url(#path-2-inside-2_123_477)"/>
<mask id="path-3-inside-3_123_477" fill="white">
<rect x="72" y="193" width="100" height="41" rx="4"/>
</mask>
<rect x="72" y="193" width="100" height="41" rx="4" fill="#380038" stroke="#CF00CF" stroke-width="10" mask="url(#path-3-inside-3_123_477)"/>
<mask id="path-4-inside-4_123_477" fill="white">
<rect x="316" y="254" width="100" height="41" rx="4"/>
</mask>
<rect x="316" y="254" width="100" height="41" rx="4" fill="#380038" stroke="#CF00CF" stroke-width="10" mask="url(#path-4-inside-4_123_477)"/>
<mask id="path-5-inside-5_123_477" fill="white">
<rect x="316" y="71" width="100" height="41" rx="4"/>
</mask>
<rect x="316" y="71" width="100" height="41" rx="4" fill="#380038" stroke="#CF00CF" stroke-width="10" mask="url(#path-5-inside-5_123_477)"/>
<mask id="path-6-inside-6_123_477" fill="white">
<rect x="864" y="171" width="100" height="41" rx="4" transform="rotate(-90 864 171)"/>
</mask>
<rect x="864" y="171" width="100" height="41" rx="4" transform="rotate(-90 864 171)" fill="#380038" stroke="#CF00CF" stroke-width="10" mask="url(#path-6-inside-6_123_477)"/>
<mask id="path-7-inside-7_123_477" fill="white">
<rect x="620" y="172" width="100" height="41" rx="4" transform="rotate(-90 620 172)"/>
</mask>
<rect x="620" y="172" width="100" height="41" rx="4" transform="rotate(-90 620 172)" fill="#CF00CF" stroke="#380038" stroke-width="10" mask="url(#path-7-inside-7_123_477)"/>
<mask id="path-8-inside-8_123_477" fill="white">
<rect x="254" y="111" width="100" height="41" rx="4" transform="rotate(-90 254 111)"/>
</mask>
<rect x="254" y="111" width="100" height="41" rx="4" transform="rotate(-90 254 111)" fill="#CF00CF" stroke="#380038" stroke-width="10" mask="url(#path-8-inside-8_123_477)"/>
<mask id="path-9-inside-9_123_477" fill="white">
<rect x="498" y="112" width="100" height="41" rx="4" transform="rotate(-90 498 112)"/>
</mask>
<rect x="498" y="112" width="100" height="41" rx="4" transform="rotate(-90 498 112)" fill="black" stroke="white" stroke-width="10" mask="url(#path-9-inside-9_123_477)"/>
<mask id="path-10-inside-10_123_477" fill="white">
<rect x="498" y="294" width="100" height="41" rx="4" transform="rotate(-90 498 294)"/>
</mask>
<rect x="498" y="294" width="100" height="41" rx="4" transform="rotate(-90 498 294)" fill="black" stroke="white" stroke-width="10" mask="url(#path-10-inside-10_123_477)"/>
<mask id="path-11-inside-11_123_477" fill="white">
<rect x="193" y="172" width="100" height="41" rx="4" transform="rotate(-90 193 172)"/>
</mask>
<rect x="193" y="172" width="100" height="41" rx="4" transform="rotate(-90 193 172)" fill="black" stroke="white" stroke-width="10" mask="url(#path-11-inside-11_123_477)"/>
<mask id="path-12-inside-12_123_477" fill="white">
<rect x="254" y="294" width="100" height="41" rx="4" transform="rotate(-90 254 294)"/>
</mask>
<rect x="254" y="294" width="100" height="41" rx="4" transform="rotate(-90 254 294)" fill="#CF00CF" stroke="#380038" stroke-width="10" mask="url(#path-12-inside-12_123_477)"/>
<mask id="path-13-inside-13_123_477" fill="white">
<rect x="61" y="122" width="61" height="61" rx="4"/>
</mask>
<rect x="61" y="122" width="61" height="61" rx="4" stroke="#380038" stroke-width="10" mask="url(#path-13-inside-13_123_477)"/>
<mask id="path-14-inside-14_123_477" fill="white">
<rect x="70" y="132" width="42" height="42" rx="4"/>
</mask>
<rect x="70" y="132" width="42" height="42" rx="4" fill="#CF00CF" stroke="#380038" stroke-width="10" mask="url(#path-14-inside-14_123_477)"/>
<mask id="path-15-inside-15_123_477" fill="white">
<rect x="131" y="71" width="42" height="42" rx="4"/>
</mask>
<rect x="131" y="71" width="42" height="42" rx="4" fill="#CF00CF" stroke="#380038" stroke-width="10" mask="url(#path-15-inside-15_123_477)"/>
<mask id="path-16-inside-16_123_477" fill="white">
<rect x="253" y="132" width="42" height="42" rx="4"/>
</mask>
<rect x="253" y="132" width="42" height="42" rx="4" fill="#380038" stroke="#CF00CF" stroke-width="10" mask="url(#path-16-inside-16_123_477)"/>
<mask id="path-17-inside-17_123_477" fill="white">
<rect x="314" y="132" width="42" height="42" rx="4"/>
</mask>
<rect x="314" y="132" width="42" height="42" rx="4" fill="#CF00CF" stroke="#380038" stroke-width="10" mask="url(#path-17-inside-17_123_477)"/>
<mask id="path-18-inside-18_123_477" fill="white">
<rect x="376" y="132" width="42" height="42" rx="4"/>
</mask>
<rect x="376" y="132" width="42" height="42" rx="4" stroke="#380038" stroke-width="10" mask="url(#path-18-inside-18_123_477)"/>
<mask id="path-19-inside-19_123_477" fill="white">
<rect x="436" y="71" width="42" height="42" rx="4"/>
</mask>
<rect x="436" y="71" width="42" height="42" rx="4" fill="#CF00CF" stroke="#380038" stroke-width="10" mask="url(#path-19-inside-19_123_477)"/>
<mask id="path-20-inside-20_123_477" fill="white">
<rect x="375" y="193" width="42" height="42" rx="4"/>
</mask>
<rect x="375" y="193" width="42" height="42" rx="4" fill="#CF00CF" stroke="#380038" stroke-width="10" mask="url(#path-20-inside-20_123_477)"/>
<mask id="path-21-inside-21_123_477" fill="white">
<rect x="436" y="193" width="42" height="42" rx="4"/>
</mask>
<rect x="436" y="193" width="42" height="42" rx="4" fill="#380038" stroke="#CF00CF" stroke-width="10" mask="url(#path-21-inside-21_123_477)"/>
<mask id="path-22-inside-22_123_477" fill="white">
<rect x="436" y="254" width="42" height="42" rx="4"/>
</mask>
<rect x="436" y="254" width="42" height="42" rx="4" fill="#CF00CF" stroke="#380038" stroke-width="10" mask="url(#path-22-inside-22_123_477)"/>
<mask id="path-23-inside-23_123_477" fill="white">
<rect x="497" y="132" width="42" height="42" rx="4"/>
</mask>
<rect x="497" y="132" width="42" height="42" rx="4" fill="#CF00CF" stroke="#380038" stroke-width="10" mask="url(#path-23-inside-23_123_477)"/>
<mask id="path-24-inside-24_123_477" fill="white">
<rect x="558" y="10" width="42" height="42" rx="4"/>
</mask>
<rect x="558" y="10" width="42" height="42" rx="4" fill="#380038" stroke="#CF00CF" stroke-width="10" mask="url(#path-24-inside-24_123_477)"/>
<mask id="path-25-inside-25_123_477" fill="white">
<rect x="558" y="132" width="42" height="42" rx="4"/>
</mask>
<rect x="558" y="132" width="42" height="42" rx="4" stroke="#380038" stroke-width="10" mask="url(#path-25-inside-25_123_477)"/>
<mask id="path-26-inside-26_123_477" fill="white">
<rect x="558" y="193" width="42" height="42" rx="4"/>
</mask>
<rect x="558" y="193" width="42" height="42" rx="4" fill="#380038" stroke="#CF00CF" stroke-width="10" mask="url(#path-26-inside-26_123_477)"/>
<mask id="path-27-inside-27_123_477" fill="white">
<rect x="619" y="254" width="42" height="42" rx="4"/>
</mask>
<rect x="619" y="254" width="42" height="42" rx="4" fill="#CF00CF" stroke="#380038" stroke-width="10" mask="url(#path-27-inside-27_123_477)"/>
<mask id="path-28-inside-28_123_477" fill="white">
<rect x="680" y="193" width="42" height="42" rx="4"/>
</mask>
<rect x="680" y="193" width="42" height="42" rx="4" fill="#CF00CF" stroke="#380038" stroke-width="10" mask="url(#path-28-inside-28_123_477)"/>
<mask id="path-29-inside-29_123_477" fill="white">
<rect x="680" y="132" width="42" height="42" rx="4"/>
</mask>
<rect x="680" y="132" width="42" height="42" rx="4" fill="#380038" stroke="#CF00CF" stroke-width="10" mask="url(#path-29-inside-29_123_477)"/>
<mask id="path-30-inside-30_123_477" fill="white">
<rect x="680" y="70" width="42" height="42" rx="4"/>
</mask>
<rect x="680" y="70" width="42" height="42" rx="4" stroke="#380038" stroke-width="10" mask="url(#path-30-inside-30_123_477)"/>
<mask id="path-31-inside-31_123_477" fill="white">
<rect x="680" y="9" width="42" height="42" rx="4"/>
</mask>
<rect x="680" y="9" width="42" height="42" rx="4" fill="#CF00CF" stroke="#380038" stroke-width="10" mask="url(#path-31-inside-31_123_477)"/>
<mask id="path-32-inside-32_123_477" fill="white">
<rect x="741" y="70" width="42" height="42" rx="4"/>
</mask>
<rect x="741" y="70" width="42" height="42" rx="4" fill="#CF00CF" stroke="#380038" stroke-width="10" mask="url(#path-32-inside-32_123_477)"/>
<mask id="path-33-inside-33_123_477" fill="white">
<rect x="802" y="10" width="42" height="42" rx="4"/>
</mask>
<rect x="802" y="10" width="42" height="42" rx="4" fill="#380038" stroke="#CF00CF" stroke-width="10" mask="url(#path-33-inside-33_123_477)"/>
<mask id="path-34-inside-34_123_477" fill="white">
<rect x="863" y="10" width="42" height="42" rx="4"/>
</mask>
<rect x="863" y="10" width="42" height="42" rx="4" fill="#CF00CF" stroke="#380038" stroke-width="10" mask="url(#path-34-inside-34_123_477)"/>
<mask id="path-35-inside-35_123_477" fill="white">
<rect x="10" y="9" width="42" height="42" rx="4"/>
</mask>
<rect x="10" y="9" width="42" height="42" rx="4" fill="#380038" stroke="#CF00CF" stroke-width="10" mask="url(#path-35-inside-35_123_477)"/>
<mask id="path-36-inside-36_123_477" fill="white">
<rect x="802" y="71" width="42" height="42" rx="4"/>
</mask>
<rect x="802" y="71" width="42" height="42" rx="4" stroke="#380038" stroke-width="10" mask="url(#path-36-inside-36_123_477)"/>
<mask id="path-37-inside-37_123_477" fill="white">
<rect x="863" y="193" width="42" height="42" rx="4"/>
</mask>
<rect x="863" y="193" width="42" height="42" rx="4" fill="#CF00CF" stroke="#380038" stroke-width="10" mask="url(#path-37-inside-37_123_477)"/>
<mask id="path-38-inside-38_123_477" fill="white">
<rect x="9" y="193" width="42" height="42" rx="4"/>
</mask>
<rect x="9" y="193" width="42" height="42" rx="4" fill="#380038" stroke="#CF00CF" stroke-width="10" mask="url(#path-38-inside-38_123_477)"/>
<mask id="path-39-inside-39_123_477" fill="white">
<rect x="802" y="254" width="42" height="42" rx="4"/>
</mask>
<rect x="802" y="254" width="42" height="42" rx="4" stroke="#380038" stroke-width="10" mask="url(#path-39-inside-39_123_477)"/>
<mask id="path-40-inside-40_123_477" fill="white">
<rect x="741" y="252" width="42" height="42" rx="4"/>
</mask>
<rect x="741" y="252" width="42" height="42" rx="4" fill="#CF00CF" stroke="#380038" stroke-width="10" mask="url(#path-40-inside-40_123_477)"/>
<mask id="path-41-inside-41_123_477" fill="white">
<rect x="680" y="254" width="42" height="42" rx="4"/>
</mask>
<rect x="680" y="254" width="42" height="42" rx="4" stroke="#380038" stroke-width="10" mask="url(#path-41-inside-41_123_477)"/>
<mask id="path-42-inside-42_123_477" fill="white">
<rect x="802" y="193" width="42" height="42" rx="4"/>
</mask>
<rect x="802" y="193" width="42" height="42" rx="4" fill="#380038" stroke="#CF00CF" stroke-width="10" mask="url(#path-42-inside-42_123_477)"/>
<mask id="path-43-inside-43_123_477" fill="white">
<rect x="863" y="254" width="42" height="42" rx="4"/>
</mask>
<rect x="863" y="254" width="42" height="42" rx="4" fill="#380038" stroke="#CF00CF" stroke-width="10" mask="url(#path-43-inside-43_123_477)"/>
<mask id="path-44-inside-44_123_477" fill="white">
<rect x="436" y="10" width="42" height="42" rx="4"/>
</mask>
<rect x="436" y="10" width="42" height="42" rx="4" fill="#380038" stroke="#CF00CF" stroke-width="10" mask="url(#path-44-inside-44_123_477)"/>
<mask id="path-45-inside-45_123_477" fill="white">
<rect x="376" y="9" width="42" height="42" rx="4"/>
</mask>
<rect x="376" y="9" width="42" height="42" rx="4" fill="#CF00CF" stroke="#380038" stroke-width="10" mask="url(#path-45-inside-45_123_477)"/>
<mask id="path-46-inside-46_123_477" fill="white">
<rect x="192" y="254" width="42" height="42" rx="4"/>
</mask>
<rect x="192" y="254" width="42" height="42" rx="4" stroke="#380038" stroke-width="10" mask="url(#path-46-inside-46_123_477)"/>
<mask id="path-47-inside-47_123_477" fill="white">
<rect x="131" y="253" width="42" height="42" rx="4"/>
</mask>
<rect x="131" y="253" width="42" height="42" rx="4" fill="#CF00CF" stroke="#380038" stroke-width="10" mask="url(#path-47-inside-47_123_477)"/>
<mask id="path-48-inside-48_123_477" fill="white">
<rect x="122" y="61" width="61" height="61" rx="4"/>
</mask>
<rect x="122" y="61" width="61" height="61" rx="4" stroke="#380038" stroke-width="10" mask="url(#path-48-inside-48_123_477)"/>
<mask id="path-49-inside-49_123_477" fill="white">
<rect x="244" width="61" height="122" rx="4"/>
</mask>
<rect x="244" width="61" height="122" rx="4" stroke="#380038" stroke-width="10" mask="url(#path-49-inside-49_123_477)"/>
<mask id="path-50-inside-50_123_477" fill="white">
<rect x="366" width="61" height="61" rx="4"/>
</mask>
<rect x="366" width="61" height="61" rx="4" stroke="#380038" stroke-width="10" mask="url(#path-50-inside-50_123_477)"/>
<mask id="path-51-inside-51_123_477" fill="white">
<rect x="183" y="61" width="61" height="122" rx="4"/>
</mask>
<rect x="183" y="61" width="61" height="122" rx="4" stroke="white" stroke-width="10" mask="url(#path-51-inside-51_123_477)"/>
<mask id="path-52-inside-52_123_477" fill="white">
<rect x="305" y="61" width="122" height="61" rx="4"/>
</mask>
<rect x="305" y="61" width="122" height="61" rx="4" stroke="#CF00CF" stroke-width="10" mask="url(#path-52-inside-52_123_477)"/>
<mask id="path-53-inside-53_123_477" fill="white">
<rect x="244" y="122" width="61" height="61" rx="4"/>
</mask>
<rect x="244" y="122" width="61" height="61" rx="4" stroke="#CF00CF" stroke-width="10" mask="url(#path-53-inside-53_123_477)"/>
<mask id="path-54-inside-54_123_477" fill="white">
<rect x="305" y="122" width="61" height="61" rx="4"/>
</mask>
<rect x="305" y="122" width="61" height="61" rx="4" stroke="#380038" stroke-width="10" mask="url(#path-54-inside-54_123_477)"/>
<mask id="path-55-inside-55_123_477" fill="white">
<rect x="366" y="122" width="61" height="61" rx="4"/>
</mask>
<rect x="366" y="122" width="61" height="61" rx="4" stroke="white" stroke-width="10" mask="url(#path-55-inside-55_123_477)"/>
<mask id="path-56-inside-56_123_477" fill="white">
<rect x="427" width="61" height="61" rx="4"/>
</mask>
<rect x="427" width="61" height="61" rx="4" stroke="#CF00CF" stroke-width="10" mask="url(#path-56-inside-56_123_477)"/>
<mask id="path-57-inside-57_123_477" fill="white">
<rect x="427" y="61" width="61" height="61" rx="4"/>
</mask>
<rect x="427" y="61" width="61" height="61" rx="4" stroke="#380038" stroke-width="10" mask="url(#path-57-inside-57_123_477)"/>
<mask id="path-58-inside-58_123_477" fill="white">
<rect x="488" width="61" height="122" rx="4"/>
</mask>
<rect x="488" width="61" height="122" rx="4" stroke="white" stroke-width="10" mask="url(#path-58-inside-58_123_477)"/>
<mask id="path-59-inside-59_123_477" fill="white">
<rect x="488" y="122" width="61" height="61" rx="4"/>
</mask>
<rect x="488" y="122" width="61" height="61" rx="4" stroke="#380038" stroke-width="10" mask="url(#path-59-inside-59_123_477)"/>
<mask id="path-60-inside-60_123_477" fill="white">
<rect x="549" width="61" height="61" rx="4"/>
</mask>
<rect x="549" width="61" height="61" rx="4" stroke="#CF00CF" stroke-width="10" mask="url(#path-60-inside-60_123_477)"/>
<mask id="path-61-inside-61_123_477" fill="white">
<rect x="671" width="61" height="61" rx="4"/>
</mask>
<rect x="671" width="61" height="61" rx="4" stroke="#380038" stroke-width="10" mask="url(#path-61-inside-61_123_477)"/>
<mask id="path-62-inside-62_123_477" fill="white">
<rect x="793" width="61" height="61" rx="4"/>
</mask>
<rect x="793" width="61" height="61" rx="4" stroke="#CF00CF" stroke-width="10" mask="url(#path-62-inside-62_123_477)"/>
<mask id="path-63-inside-63_123_477" fill="white">
<rect x="610" y="61" width="61" height="122" rx="4"/>
</mask>
<rect x="610" y="61" width="61" height="122" rx="4" stroke="#380038" stroke-width="10" mask="url(#path-63-inside-63_123_477)"/>
<mask id="path-64-inside-64_123_477" fill="white">
<rect x="671" y="61" width="61" height="61" rx="4"/>
</mask>
<rect x="671" y="61" width="61" height="61" rx="4" stroke="white" stroke-width="10" mask="url(#path-64-inside-64_123_477)"/>
<mask id="path-65-inside-65_123_477" fill="white">
<rect x="732" y="61" width="61" height="61" rx="4"/>
</mask>
<rect x="732" y="61" width="61" height="61" rx="4" stroke="#380038" stroke-width="10" mask="url(#path-65-inside-65_123_477)"/>
<mask id="path-66-inside-66_123_477" fill="white">
<rect x="549" y="122" width="61" height="61" rx="4"/>
</mask>
<rect x="549" y="122" width="61" height="61" rx="4" stroke="white" stroke-width="10" mask="url(#path-66-inside-66_123_477)"/>
<mask id="path-67-inside-67_123_477" fill="white">
<rect x="671" y="122" width="61" height="61" rx="4"/>
</mask>
<rect x="671" y="122" width="61" height="61" rx="4" stroke="#CF00CF" stroke-width="10" mask="url(#path-67-inside-67_123_477)"/>
<mask id="path-68-inside-68_123_477" fill="white">
<rect x="854" width="61" height="61" rx="4"/>
</mask>
<rect x="854" width="61" height="61" rx="4" stroke="#380038" stroke-width="10" mask="url(#path-68-inside-68_123_477)"/>
<mask id="path-69-inside-69_123_477" fill="white">
<rect x="793" y="61" width="61" height="61" rx="4"/>
</mask>
<rect x="793" y="61" width="61" height="61" rx="4" stroke="white" stroke-width="10" mask="url(#path-69-inside-69_123_477)"/>
<mask id="path-70-inside-70_123_477" fill="white">
<rect x="854" y="61" width="61" height="122" rx="4"/>
</mask>
<rect x="854" y="61" width="61" height="122" rx="4" stroke="#CF00CF" stroke-width="10" mask="url(#path-70-inside-70_123_477)"/>
<mask id="path-71-inside-71_123_477" fill="white">
<rect width="61" height="61" rx="4"/>
</mask>
<rect width="61" height="61" rx="4" stroke="#CF00CF" stroke-width="10" mask="url(#path-71-inside-71_123_477)"/>
<mask id="path-72-inside-72_123_477" fill="white">
<rect x="61" y="183" width="122" height="61" rx="4"/>
</mask>
<rect x="61" y="183" width="122" height="61" rx="4" stroke="#CF00CF" stroke-width="10" mask="url(#path-72-inside-72_123_477)"/>
<mask id="path-73-inside-73_123_477" fill="white">
<rect x="122" y="244" width="61" height="61" rx="4"/>
</mask>
<rect x="122" y="244" width="61" height="61" rx="4" stroke="#380038" stroke-width="10" mask="url(#path-73-inside-73_123_477)"/>
<mask id="path-74-inside-74_123_477" fill="white">
<rect x="244" y="183" width="61" height="122" rx="4"/>
</mask>
<rect x="244" y="183" width="61" height="122" rx="4" stroke="#380038" stroke-width="10" mask="url(#path-74-inside-74_123_477)"/>
<mask id="path-75-inside-75_123_477" fill="white">
<rect x="366" y="183" width="61" height="61" rx="4"/>
</mask>
<rect x="366" y="183" width="61" height="61" rx="4" stroke="#380038" stroke-width="10" mask="url(#path-75-inside-75_123_477)"/>
<mask id="path-76-inside-76_123_477" fill="white">
<rect x="183" y="244" width="61" height="61" rx="4"/>
</mask>
<rect x="183" y="244" width="61" height="61" rx="4" stroke="white" stroke-width="10" mask="url(#path-76-inside-76_123_477)"/>
<mask id="path-77-inside-77_123_477" fill="white">
<rect x="305" y="244" width="122" height="61" rx="4"/>
</mask>
<rect x="305" y="244" width="122" height="61" rx="4" stroke="#CF00CF" stroke-width="10" mask="url(#path-77-inside-77_123_477)"/>
<mask id="path-78-inside-78_123_477" fill="white">
<rect x="427" y="183" width="61" height="61" rx="4"/>
</mask>
<rect x="427" y="183" width="61" height="61" rx="4" stroke="#CF00CF" stroke-width="10" mask="url(#path-78-inside-78_123_477)"/>
<mask id="path-79-inside-79_123_477" fill="white">
<rect x="427" y="244" width="61" height="61" rx="4"/>
</mask>
<rect x="427" y="244" width="61" height="61" rx="4" stroke="#380038" stroke-width="10" mask="url(#path-79-inside-79_123_477)"/>
<mask id="path-80-inside-80_123_477" fill="white">
<rect x="488" y="183" width="61" height="122" rx="4"/>
</mask>
<rect x="488" y="183" width="61" height="122" rx="4" stroke="white" stroke-width="10" mask="url(#path-80-inside-80_123_477)"/>
<mask id="path-81-inside-81_123_477" fill="white">
<rect x="549" y="183" width="61" height="61" rx="4"/>
</mask>
<rect x="549" y="183" width="61" height="61" rx="4" stroke="#CF00CF" stroke-width="10" mask="url(#path-81-inside-81_123_477)"/>
<mask id="path-82-inside-82_123_477" fill="white">
<rect x="671" y="183" width="61" height="61" rx="4"/>
</mask>
<rect x="671" y="183" width="61" height="61" rx="4" stroke="#380038" stroke-width="10" mask="url(#path-82-inside-82_123_477)"/>
<mask id="path-83-inside-83_123_477" fill="white">
<rect x="793" y="183" width="61" height="61" rx="4"/>
</mask>
<rect x="793" y="183" width="61" height="61" rx="4" stroke="#CF00CF" stroke-width="10" mask="url(#path-83-inside-83_123_477)"/>
<mask id="path-84-inside-84_123_477" fill="white">
<rect x="610" y="244" width="61" height="61" rx="4"/>
</mask>
<rect x="610" y="244" width="61" height="61" rx="4" stroke="#380038" stroke-width="10" mask="url(#path-84-inside-84_123_477)"/>
<mask id="path-85-inside-85_123_477" fill="white">
<rect x="671" y="244" width="61" height="61" rx="4"/>
</mask>
<rect x="671" y="244" width="61" height="61" rx="4" stroke="white" stroke-width="10" mask="url(#path-85-inside-85_123_477)"/>
<mask id="path-86-inside-86_123_477" fill="white">
<rect x="732" y="244" width="61" height="61" rx="4"/>
</mask>
<rect x="732" y="244" width="61" height="61" rx="4" stroke="#380038" stroke-width="10" mask="url(#path-86-inside-86_123_477)"/>
<mask id="path-87-inside-87_123_477" fill="white">
<rect x="854" y="183" width="61" height="61" rx="4"/>
</mask>
<rect x="854" y="183" width="61" height="61" rx="4" stroke="#380038" stroke-width="10" mask="url(#path-87-inside-87_123_477)"/>
<mask id="path-88-inside-88_123_477" fill="white">
<rect x="793" y="244" width="61" height="61" rx="4"/>
</mask>
<rect x="793" y="244" width="61" height="61" rx="4" stroke="white" stroke-width="10" mask="url(#path-88-inside-88_123_477)"/>
<mask id="path-89-inside-89_123_477" fill="white">
<rect x="854" y="244" width="61" height="61" rx="4"/>
</mask>
<rect x="854" y="244" width="61" height="61" rx="4" stroke="#CF00CF" stroke-width="10" mask="url(#path-89-inside-89_123_477)"/>
<mask id="path-90-inside-90_123_477" fill="white">
<rect y="183" width="61" height="61" rx="4"/>
</mask>
<rect y="183" width="61" height="61" rx="4" stroke="#CF00CF" stroke-width="10" mask="url(#path-90-inside-90_123_477)"/>
</svg>
