<svg width="914" height="201" viewBox="0 0 914 201" fill="none" xmlns="http://www.w3.org/2000/svg">
<path d="M76.0771 2.5C80.3729 2.50008 84.757 4.78845 89.0361 9.56543C93.3141 14.3412 97.2806 21.3936 100.663 30.3213C107.421 48.1592 111.654 72.9706 111.654 100.5C111.654 128.029 107.421 152.841 100.663 170.679C97.2806 179.606 93.3141 186.659 89.0361 191.435C84.757 196.212 80.3729 198.5 76.0771 198.5C71.7814 198.5 67.3973 196.211 63.1182 191.435C58.8402 186.659 54.8727 179.606 51.4902 170.679C44.7319 152.841 40.5 128.029 40.5 100.5C40.5 72.9706 44.7319 48.1592 51.4902 30.3213C54.8727 21.3936 58.8402 14.3412 63.1182 9.56543C67.3973 4.78852 71.7814 2.5 76.0771 2.5Z" stroke="#CF00CF" stroke-width="5"/>
<path d="M38.0771 2.5C42.3729 2.50008 46.757 4.78845 51.0361 9.56543C55.3141 14.3412 59.2806 21.3936 62.6631 30.3213C69.4214 48.1592 73.6543 72.9706 73.6543 100.5C73.6543 128.029 69.4214 152.841 62.6631 170.679C59.2806 179.606 55.3141 186.659 51.0361 191.435C46.757 196.212 42.3729 198.5 38.0771 198.5C33.7814 198.5 29.3973 196.211 25.1182 191.435C20.8402 186.659 16.8727 179.606 13.4902 170.679C6.7319 152.841 2.5 128.029 2.5 100.5C2.5 72.9706 6.7319 48.1592 13.4902 30.3213C16.8727 21.3936 20.8402 14.3412 25.1182 9.56543C29.3973 4.78852 33.7814 2.5 38.0771 2.5Z" stroke="#CF00CF" stroke-width="5"/>
<path d="M114.154 2.5C118.45 2.50008 122.834 4.78845 127.113 9.56543C131.391 14.3412 135.358 21.3936 138.74 30.3213C145.499 48.1592 149.731 72.9706 149.731 100.5C149.731 128.029 145.499 152.841 138.74 170.679C135.358 179.606 131.391 186.659 127.113 191.435C122.834 196.212 118.45 198.5 114.154 198.5C109.859 198.5 105.474 196.211 101.195 191.435C96.9174 186.659 92.9499 179.606 89.5674 170.679C82.8091 152.841 78.5771 128.029 78.5771 100.5C78.5771 72.9706 82.8091 48.1592 89.5674 30.3213C92.9499 21.3936 96.9174 14.3412 101.195 9.56543C105.474 4.78852 109.859 2.5 114.154 2.5Z" stroke="#380038" stroke-width="5"/>
<path d="M152.231 2.5C156.527 2.50008 160.911 4.78845 165.19 9.56543C169.468 14.3412 173.435 21.3936 176.817 30.3213C183.576 48.1592 187.809 72.9706 187.809 100.5C187.809 128.029 183.576 152.841 176.817 170.679C173.435 179.606 169.468 186.659 165.19 191.435C160.911 196.212 156.527 198.5 152.231 198.5C147.936 198.5 143.552 196.211 139.272 191.435C134.995 186.659 131.027 179.606 127.645 170.679C120.886 152.841 116.654 128.029 116.654 100.5C116.654 72.9706 120.886 48.1592 127.645 30.3213C131.027 21.3936 134.995 14.3412 139.272 9.56543C143.552 4.78852 147.936 2.5 152.231 2.5Z" stroke="#CF00CF" stroke-width="5"/>
<path d="M190.308 2.5C194.603 2.50008 198.988 4.78845 203.267 9.56543C207.545 14.3412 211.511 21.3936 214.894 30.3213C221.652 48.1592 225.885 72.9706 225.885 100.5C225.885 128.029 221.652 152.841 214.894 170.679C211.511 179.606 207.545 186.659 203.267 191.435C198.988 196.212 194.603 198.5 190.308 198.5C186.012 198.5 181.628 196.211 177.349 191.435C173.071 186.659 169.103 179.606 165.721 170.679C158.962 152.841 154.73 128.029 154.73 100.5C154.73 72.9706 158.962 48.1592 165.721 30.3213C169.103 21.3936 173.071 14.3412 177.349 9.56543C181.628 4.78852 186.012 2.5 190.308 2.5Z" stroke="#CF00CF" stroke-width="5"/>
<path d="M228.385 2.5C232.68 2.50008 237.065 4.78845 241.344 9.56543C245.622 14.3412 249.588 21.3936 252.971 30.3213C259.729 48.1592 263.962 72.9706 263.962 100.5C263.962 128.029 259.729 152.841 252.971 170.679C249.588 179.606 245.622 186.659 241.344 191.435C237.065 196.212 232.68 198.5 228.385 198.5C224.089 198.5 219.705 196.211 215.426 191.435C211.148 186.659 207.18 179.606 203.798 170.679C197.04 152.841 192.808 128.029 192.808 100.5C192.808 72.9706 197.04 48.1592 203.798 30.3213C207.18 21.3936 211.148 14.3412 215.426 9.56543C219.705 4.78852 224.089 2.5 228.385 2.5Z" stroke="#380038" stroke-width="5"/>
<path d="M266.462 2.5C270.758 2.50008 275.142 4.78845 279.421 9.56543C283.699 14.3412 287.665 21.3936 291.048 30.3213C297.806 48.1592 302.039 72.9706 302.039 100.5C302.039 128.029 297.806 152.841 291.048 170.679C287.665 179.606 283.699 186.659 279.421 191.435C275.142 196.212 270.758 198.5 266.462 198.5C262.166 198.5 257.782 196.211 253.503 191.435C249.225 186.659 245.258 179.606 241.875 170.679C235.117 152.841 230.885 128.029 230.885 100.5C230.885 72.9706 235.117 48.1592 241.875 30.3213C245.258 21.3936 249.225 14.3412 253.503 9.56543C257.782 4.78852 262.166 2.5 266.462 2.5Z" stroke="#CF00CF" stroke-width="5"/>
<path d="M304.539 2.5C308.835 2.50008 313.219 4.78845 317.498 9.56543C321.776 14.3412 325.743 21.3936 329.125 30.3213C335.883 48.1592 340.116 72.9706 340.116 100.5C340.116 128.029 335.883 152.841 329.125 170.679C325.743 179.606 321.776 186.659 317.498 191.435C313.219 196.212 308.835 198.5 304.539 198.5C300.243 198.5 295.859 196.211 291.58 191.435C287.302 186.659 283.335 179.606 279.952 170.679C273.194 152.841 268.962 128.029 268.962 100.5C268.962 72.9706 273.194 48.1592 279.952 30.3213C283.335 21.3936 287.302 14.3412 291.58 9.56543C295.859 4.78852 300.243 2.5 304.539 2.5Z" stroke="#CF00CF" stroke-width="5"/>
<path d="M342.615 2.5C346.911 2.50008 351.295 4.78845 355.574 9.56543C359.852 14.3412 363.819 21.3936 367.201 30.3213C373.96 48.1592 378.192 72.9706 378.192 100.5C378.192 128.029 373.96 152.841 367.201 170.679C363.819 179.606 359.852 186.659 355.574 191.435C351.295 196.212 346.911 198.5 342.615 198.5C338.32 198.5 333.935 196.211 329.656 191.435C325.378 186.659 321.411 179.606 318.028 170.679C311.27 152.841 307.038 128.029 307.038 100.5C307.038 72.9706 311.27 48.1592 318.028 30.3213C321.411 21.3936 325.378 14.3412 329.656 9.56543C333.935 4.78852 338.32 2.5 342.615 2.5Z" stroke="#380038" stroke-width="5"/>
<path d="M380.692 2.5C384.988 2.50008 389.372 4.78845 393.651 9.56543C397.929 14.3412 401.896 21.3936 405.278 30.3213C412.037 48.1592 416.27 72.9706 416.27 100.5C416.27 128.029 412.037 152.841 405.278 170.679C401.896 179.606 397.929 186.659 393.651 191.435C389.372 196.212 384.988 198.5 380.692 198.5C376.397 198.5 372.012 196.211 367.733 191.435C363.455 186.659 359.488 179.606 356.105 170.679C349.347 152.841 345.115 128.029 345.115 100.5C345.115 72.9706 349.347 48.1592 356.105 30.3213C359.488 21.3936 363.455 14.3412 367.733 9.56543C372.012 4.78852 376.397 2.5 380.692 2.5Z" stroke="#CF00CF" stroke-width="5"/>
<path d="M418.77 2.5C423.065 2.50008 427.449 4.78845 431.729 9.56543C436.006 14.3412 439.973 21.3936 443.355 30.3213C450.114 48.1592 454.347 72.9706 454.347 100.5C454.347 128.029 450.114 152.841 443.355 170.679C439.973 179.606 436.006 186.659 431.729 191.435C427.449 196.212 423.065 198.5 418.77 198.5C414.474 198.5 410.09 196.211 405.811 191.435C401.533 186.659 397.565 179.606 394.183 170.679C387.424 152.841 383.192 128.029 383.192 100.5C383.192 72.9706 387.424 48.1592 394.183 30.3213C397.565 21.3936 401.533 14.3412 405.811 9.56543C410.09 4.78852 414.474 2.5 418.77 2.5Z" stroke="#CF00CF" stroke-width="5"/>
<path d="M456.847 2.5C461.142 2.50008 465.527 4.78845 469.806 9.56543C474.084 14.3412 478.05 21.3936 481.433 30.3213C488.191 48.1592 492.424 72.9706 492.424 100.5C492.424 128.029 488.191 152.841 481.433 170.679C478.05 179.606 474.084 186.659 469.806 191.435C465.527 196.212 461.142 198.5 456.847 198.5C452.551 198.5 448.167 196.211 443.888 191.435C439.61 186.659 435.642 179.606 432.26 170.679C425.501 152.841 421.27 128.029 421.27 100.5C421.27 72.9706 425.501 48.1592 432.26 30.3213C435.642 21.3936 439.61 14.3412 443.888 9.56543C448.167 4.78852 452.551 2.5 456.847 2.5Z" stroke="#380038" stroke-width="5"/>
<path d="M494.923 2.5C499.219 2.50008 503.603 4.78845 507.882 9.56543C512.16 14.3412 516.126 21.3936 519.509 30.3213C526.267 48.1592 530.5 72.9706 530.5 100.5C530.5 128.029 526.267 152.841 519.509 170.679C516.126 179.606 512.16 186.659 507.882 191.435C503.603 196.212 499.219 198.5 494.923 198.5C490.627 198.5 486.243 196.211 481.964 191.435C477.686 186.659 473.718 179.606 470.336 170.679C463.578 152.841 459.346 128.029 459.346 100.5C459.346 72.9706 463.578 48.1592 470.336 30.3213C473.718 21.3936 477.686 14.3412 481.964 9.56543C486.243 4.78852 490.627 2.5 494.923 2.5Z" stroke="#CF00CF" stroke-width="5"/>
<path d="M533 2.5C537.296 2.50008 541.68 4.78845 545.959 9.56543C550.237 14.3412 554.203 21.3936 557.586 30.3213C564.344 48.1592 568.577 72.9706 568.577 100.5C568.577 128.029 564.344 152.841 557.586 170.679C554.203 179.606 550.237 186.659 545.959 191.435C541.68 196.212 537.296 198.5 533 198.5C528.704 198.5 524.32 196.211 520.041 191.435C515.763 186.659 511.796 179.606 508.413 170.679C501.655 152.841 497.423 128.029 497.423 100.5C497.423 72.9706 501.655 48.1592 508.413 30.3213C511.796 21.3936 515.763 14.3412 520.041 9.56543C524.32 4.78852 528.704 2.5 533 2.5Z" stroke="#CF00CF" stroke-width="5"/>
<path d="M571.077 2.5C575.373 2.50008 579.757 4.78845 584.036 9.56543C588.314 14.3412 592.281 21.3936 595.663 30.3213C602.421 48.1592 606.654 72.9706 606.654 100.5C606.654 128.029 602.421 152.841 595.663 170.679C592.281 179.606 588.314 186.659 584.036 191.435C579.757 196.212 575.373 198.5 571.077 198.5C566.781 198.5 562.397 196.211 558.118 191.435C553.84 186.659 549.873 179.606 546.49 170.679C539.732 152.841 535.5 128.029 535.5 100.5C535.5 72.9706 539.732 48.1592 546.49 30.3213C549.873 21.3936 553.84 14.3412 558.118 9.56543C562.397 4.78852 566.781 2.5 571.077 2.5Z" stroke="#380038" stroke-width="5"/>
<path d="M609.154 2.5C613.45 2.50008 617.834 4.78845 622.113 9.56543C626.391 14.3412 630.358 21.3936 633.74 30.3213C640.499 48.1592 644.731 72.9706 644.731 100.5C644.731 128.029 640.499 152.841 633.74 170.679C630.358 179.606 626.391 186.659 622.113 191.435C617.834 196.212 613.45 198.5 609.154 198.5C604.859 198.5 600.474 196.211 596.195 191.435C591.917 186.659 587.95 179.606 584.567 170.679C577.809 152.841 573.577 128.029 573.577 100.5C573.577 72.9706 577.809 48.1592 584.567 30.3213C587.95 21.3936 591.917 14.3412 596.195 9.56543C600.474 4.78852 604.859 2.5 609.154 2.5Z" stroke="#CF00CF" stroke-width="5"/>
<path d="M647.231 2.5C651.527 2.50008 655.911 4.78845 660.19 9.56543C664.468 14.3412 668.435 21.3936 671.817 30.3213C678.576 48.1592 682.809 72.9706 682.809 100.5C682.809 128.029 678.576 152.841 671.817 170.679C668.435 179.606 664.468 186.659 660.19 191.435C655.911 196.212 651.527 198.5 647.231 198.5C642.936 198.5 638.552 196.211 634.272 191.435C629.995 186.659 626.027 179.606 622.645 170.679C615.886 152.841 611.654 128.029 611.654 100.5C611.654 72.9706 615.886 48.1592 622.645 30.3213C626.027 21.3936 629.995 14.3412 634.272 9.56543C638.552 4.78852 642.936 2.5 647.231 2.5Z" stroke="#CF00CF" stroke-width="5"/>
<path d="M685.308 2.5C689.603 2.50008 693.988 4.78845 698.267 9.56543C702.545 14.3412 706.511 21.3936 709.894 30.3213C716.652 48.1592 720.885 72.9706 720.885 100.5C720.885 128.029 716.652 152.841 709.894 170.679C706.511 179.606 702.545 186.659 698.267 191.435C693.988 196.212 689.603 198.5 685.308 198.5C681.012 198.5 676.628 196.211 672.349 191.435C668.071 186.659 664.103 179.606 660.721 170.679C653.962 152.841 649.73 128.029 649.73 100.5C649.73 72.9706 653.962 48.1592 660.721 30.3213C664.103 21.3936 668.071 14.3412 672.349 9.56543C676.628 4.78852 681.012 2.5 685.308 2.5Z" stroke="#380038" stroke-width="5"/>
<path d="M723.385 2.5C727.68 2.50008 732.065 4.78845 736.344 9.56543C740.622 14.3412 744.588 21.3936 747.971 30.3213C754.729 48.1592 758.962 72.9706 758.962 100.5C758.962 128.029 754.729 152.841 747.971 170.679C744.588 179.606 740.622 186.659 736.344 191.435C732.065 196.212 727.68 198.5 723.385 198.5C719.089 198.5 714.705 196.211 710.426 191.435C706.148 186.659 702.18 179.606 698.798 170.679C692.04 152.841 687.808 128.029 687.808 100.5C687.808 72.9706 692.04 48.1592 698.798 30.3213C702.18 21.3936 706.148 14.3412 710.426 9.56543C714.705 4.78852 719.089 2.5 723.385 2.5Z" stroke="#CF00CF" stroke-width="5"/>
<path d="M761.462 2.5C765.758 2.50008 770.142 4.78845 774.421 9.56543C778.699 14.3412 782.665 21.3936 786.048 30.3213C792.806 48.1592 797.039 72.9706 797.039 100.5C797.039 128.029 792.806 152.841 786.048 170.679C782.665 179.606 778.699 186.659 774.421 191.435C770.142 196.212 765.758 198.5 761.462 198.5C757.166 198.5 752.782 196.211 748.503 191.435C744.225 186.659 740.258 179.606 736.875 170.679C730.117 152.841 725.885 128.029 725.885 100.5C725.885 72.9706 730.117 48.1592 736.875 30.3213C740.258 21.3936 744.225 14.3412 748.503 9.56543C752.782 4.78852 757.166 2.5 761.462 2.5Z" stroke="#CF00CF" stroke-width="5"/>
<path d="M799.539 2.5C803.835 2.50008 808.219 4.78845 812.498 9.56543C816.776 14.3412 820.743 21.3936 824.125 30.3213C830.883 48.1592 835.116 72.9706 835.116 100.5C835.116 128.029 830.883 152.841 824.125 170.679C820.743 179.606 816.776 186.659 812.498 191.435C808.219 196.212 803.835 198.5 799.539 198.5C795.243 198.5 790.859 196.211 786.58 191.435C782.302 186.659 778.335 179.606 774.952 170.679C768.194 152.841 763.962 128.029 763.962 100.5C763.962 72.9706 768.194 48.1592 774.952 30.3213C778.335 21.3936 782.302 14.3412 786.58 9.56543C790.859 4.78852 795.243 2.5 799.539 2.5Z" stroke="#380038" stroke-width="5"/>
<path d="M837.615 2.5C841.911 2.50008 846.295 4.78845 850.574 9.56543C854.852 14.3412 858.819 21.3936 862.201 30.3213C868.96 48.1592 873.192 72.9706 873.192 100.5C873.192 128.029 868.96 152.841 862.201 170.679C858.819 179.606 854.852 186.659 850.574 191.435C846.295 196.212 841.911 198.5 837.615 198.5C833.32 198.5 828.935 196.211 824.656 191.435C820.378 186.659 816.411 179.606 813.028 170.679C806.27 152.841 802.038 128.029 802.038 100.5C802.038 72.9706 806.27 48.1592 813.028 30.3213C816.411 21.3936 820.378 14.3412 824.656 9.56543C828.935 4.78852 833.32 2.5 837.615 2.5Z" stroke="#CF00CF" stroke-width="5"/>
<path d="M875.692 2.5C879.988 2.50008 884.372 4.78845 888.651 9.56543C892.929 14.3412 896.896 21.3936 900.278 30.3213C907.037 48.1592 911.27 72.9706 911.27 100.5C911.27 128.029 907.037 152.841 900.278 170.679C896.896 179.606 892.929 186.659 888.651 191.435C884.372 196.212 879.988 198.5 875.692 198.5C871.397 198.5 867.012 196.211 862.733 191.435C858.455 186.659 854.488 179.606 851.105 170.679C844.347 152.841 840.115 128.029 840.115 100.5C840.115 72.9706 844.347 48.1592 851.105 30.3213C854.488 21.3936 858.455 14.3412 862.733 9.56543C867.012 4.78852 871.397 2.5 875.692 2.5Z" stroke="#CF00CF" stroke-width="5"/>
</svg>
