<svg width="914" height="201" viewBox="0 0 914 201" fill="none" xmlns="http://www.w3.org/2000/svg">
<path d="M114.077 2.5C118.373 2.50008 122.757 4.78845 127.036 9.56543C131.314 14.3412 135.281 21.3936 138.663 30.3213C145.421 48.1592 149.654 72.9706 149.654 100.5C149.654 128.029 145.421 152.841 138.663 170.679C135.281 179.606 131.314 186.659 127.036 191.435C122.757 196.212 118.373 198.5 114.077 198.5C109.781 198.5 105.397 196.211 101.118 191.435C96.8402 186.659 92.8727 179.606 89.4902 170.679C82.7319 152.841 78.5 128.029 78.5 100.5C78.5 72.9706 82.7319 48.1592 89.4902 30.3213C92.8727 21.3936 96.8402 14.3412 101.118 9.56543C105.397 4.78852 109.781 2.5 114.077 2.5Z" stroke="#CF00CF" stroke-width="5"/>
<path d="M76.0771 2.5C80.3729 2.50008 84.757 4.78845 89.0361 9.56543C93.3141 14.3412 97.2806 21.3936 100.663 30.3213C107.421 48.1592 111.654 72.9706 111.654 100.5C111.654 128.029 107.421 152.841 100.663 170.679C97.2806 179.606 93.3141 186.659 89.0361 191.435C84.757 196.212 80.3729 198.5 76.0771 198.5C71.7814 198.5 67.3973 196.211 63.1182 191.435C58.8402 186.659 54.8727 179.606 51.4902 170.679C44.7319 152.841 40.5 128.029 40.5 100.5C40.5 72.9706 44.7319 48.1592 51.4902 30.3213C54.8727 21.3936 58.8402 14.3412 63.1182 9.56543C67.3973 4.78852 71.7814 2.5 76.0771 2.5Z" stroke="#CF00CF" stroke-width="5"/>
<path d="M152.154 2.5C156.45 2.50008 160.834 4.78845 165.113 9.56543C169.391 14.3412 173.358 21.3936 176.74 30.3213C183.499 48.1592 187.731 72.9706 187.731 100.5C187.731 128.029 183.499 152.841 176.74 170.679C173.358 179.606 169.391 186.659 165.113 191.435C160.834 196.212 156.45 198.5 152.154 198.5C147.859 198.5 143.474 196.211 139.195 191.435C134.917 186.659 130.95 179.606 127.567 170.679C120.809 152.841 116.577 128.029 116.577 100.5C116.577 72.9706 120.809 48.1592 127.567 30.3213C130.95 21.3936 134.917 14.3412 139.195 9.56543C143.474 4.78852 147.859 2.5 152.154 2.5Z" stroke="#380038" stroke-width="5"/>
<path d="M38.0771 2.5C42.3729 2.50008 46.757 4.78845 51.0361 9.56543C55.3141 14.3412 59.2806 21.3936 62.6631 30.3213C69.4214 48.1592 73.6543 72.9706 73.6543 100.5C73.6543 128.029 69.4214 152.841 62.6631 170.679C59.2806 179.606 55.3141 186.659 51.0361 191.435C46.757 196.212 42.3729 198.5 38.0771 198.5C33.7814 198.5 29.3973 196.211 25.1182 191.435C20.8402 186.659 16.8727 179.606 13.4902 170.679C6.7319 152.841 2.5 128.029 2.5 100.5C2.5 72.9706 6.7319 48.1592 13.4902 30.3213C16.8727 21.3936 20.8402 14.3412 25.1182 9.56543C29.3973 4.78852 33.7814 2.5 38.0771 2.5Z" stroke="#380038" stroke-width="5"/>
<path d="M190.231 2.5C194.527 2.50008 198.911 4.78845 203.19 9.56543C207.468 14.3412 211.435 21.3936 214.817 30.3213C221.576 48.1592 225.809 72.9706 225.809 100.5C225.809 128.029 221.576 152.841 214.817 170.679C211.435 179.606 207.468 186.659 203.19 191.435C198.911 196.212 194.527 198.5 190.231 198.5C185.936 198.5 181.552 196.211 177.272 191.435C172.995 186.659 169.027 179.606 165.645 170.679C158.886 152.841 154.654 128.029 154.654 100.5C154.654 72.9706 158.886 48.1592 165.645 30.3213C169.027 21.3936 172.995 14.3412 177.272 9.56543C181.552 4.78852 185.936 2.5 190.231 2.5Z" stroke="#CF00CF" stroke-width="5"/>
<path d="M228.308 2.5C232.603 2.50008 236.988 4.78845 241.267 9.56543C245.545 14.3412 249.511 21.3936 252.894 30.3213C259.652 48.1592 263.885 72.9706 263.885 100.5C263.885 128.029 259.652 152.841 252.894 170.679C249.511 179.606 245.545 186.659 241.267 191.435C236.988 196.212 232.603 198.5 228.308 198.5C224.012 198.5 219.628 196.211 215.349 191.435C211.071 186.659 207.103 179.606 203.721 170.679C196.962 152.841 192.73 128.029 192.73 100.5C192.73 72.9706 196.962 48.1592 203.721 30.3213C207.103 21.3936 211.071 14.3412 215.349 9.56543C219.628 4.78852 224.012 2.5 228.308 2.5Z" stroke="#CF00CF" stroke-width="5"/>
<path d="M266.385 2.5C270.68 2.50008 275.065 4.78845 279.344 9.56543C283.622 14.3412 287.588 21.3936 290.971 30.3213C297.729 48.1592 301.962 72.9706 301.962 100.5C301.962 128.029 297.729 152.841 290.971 170.679C287.588 179.606 283.622 186.659 279.344 191.435C275.065 196.212 270.68 198.5 266.385 198.5C262.089 198.5 257.705 196.211 253.426 191.435C249.148 186.659 245.18 179.606 241.798 170.679C235.04 152.841 230.808 128.029 230.808 100.5C230.808 72.9706 235.04 48.1592 241.798 30.3213C245.18 21.3936 249.148 14.3412 253.426 9.56543C257.705 4.78852 262.089 2.5 266.385 2.5Z" stroke="#380038" stroke-width="5"/>
<path d="M304.462 2.5C308.758 2.50008 313.142 4.78845 317.421 9.56543C321.699 14.3412 325.665 21.3936 329.048 30.3213C335.806 48.1592 340.039 72.9706 340.039 100.5C340.039 128.029 335.806 152.841 329.048 170.679C325.665 179.606 321.699 186.659 317.421 191.435C313.142 196.212 308.758 198.5 304.462 198.5C300.166 198.5 295.782 196.211 291.503 191.435C287.225 186.659 283.258 179.606 279.875 170.679C273.117 152.841 268.885 128.029 268.885 100.5C268.885 72.9706 273.117 48.1592 279.875 30.3213C283.258 21.3936 287.225 14.3412 291.503 9.56543C295.782 4.78852 300.166 2.5 304.462 2.5Z" stroke="#CF00CF" stroke-width="5"/>
<path d="M342.539 2.5C346.835 2.50008 351.219 4.78845 355.498 9.56543C359.776 14.3412 363.743 21.3936 367.125 30.3213C373.883 48.1592 378.116 72.9706 378.116 100.5C378.116 128.029 373.883 152.841 367.125 170.679C363.743 179.606 359.776 186.659 355.498 191.435C351.219 196.212 346.835 198.5 342.539 198.5C338.243 198.5 333.859 196.211 329.58 191.435C325.302 186.659 321.335 179.606 317.952 170.679C311.194 152.841 306.962 128.029 306.962 100.5C306.962 72.9706 311.194 48.1592 317.952 30.3213C321.335 21.3936 325.302 14.3412 329.58 9.56543C333.859 4.78852 338.243 2.5 342.539 2.5Z" stroke="#CF00CF" stroke-width="5"/>
<path d="M380.615 2.5C384.911 2.50008 389.295 4.78845 393.574 9.56543C397.852 14.3412 401.819 21.3936 405.201 30.3213C411.96 48.1592 416.192 72.9706 416.192 100.5C416.192 128.029 411.96 152.841 405.201 170.679C401.819 179.606 397.852 186.659 393.574 191.435C389.295 196.212 384.911 198.5 380.615 198.5C376.32 198.5 371.935 196.211 367.656 191.435C363.378 186.659 359.411 179.606 356.028 170.679C349.27 152.841 345.038 128.029 345.038 100.5C345.038 72.9706 349.27 48.1592 356.028 30.3213C359.411 21.3936 363.378 14.3412 367.656 9.56543C371.935 4.78852 376.32 2.5 380.615 2.5Z" stroke="#380038" stroke-width="5"/>
<path d="M418.692 2.5C422.988 2.50008 427.372 4.78845 431.651 9.56543C435.929 14.3412 439.896 21.3936 443.278 30.3213C450.037 48.1592 454.27 72.9706 454.27 100.5C454.27 128.029 450.037 152.841 443.278 170.679C439.896 179.606 435.929 186.659 431.651 191.435C427.372 196.212 422.988 198.5 418.692 198.5C414.397 198.5 410.012 196.211 405.733 191.435C401.455 186.659 397.488 179.606 394.105 170.679C387.347 152.841 383.115 128.029 383.115 100.5C383.115 72.9706 387.347 48.1592 394.105 30.3213C397.488 21.3936 401.455 14.3412 405.733 9.56543C410.012 4.78852 414.397 2.5 418.692 2.5Z" stroke="#CF00CF" stroke-width="5"/>
<path d="M456.77 2.5C461.065 2.50008 465.449 4.78845 469.729 9.56543C474.006 14.3412 477.973 21.3936 481.355 30.3213C488.114 48.1592 492.347 72.9706 492.347 100.5C492.347 128.029 488.114 152.841 481.355 170.679C477.973 179.606 474.006 186.659 469.729 191.435C465.449 196.212 461.065 198.5 456.77 198.5C452.474 198.5 448.09 196.211 443.811 191.435C439.533 186.659 435.565 179.606 432.183 170.679C425.424 152.841 421.192 128.029 421.192 100.5C421.192 72.9706 425.424 48.1592 432.183 30.3213C435.565 21.3936 439.533 14.3412 443.811 9.56543C448.09 4.78852 452.474 2.5 456.77 2.5Z" stroke="#CF00CF" stroke-width="5"/>
<path d="M494.847 2.5C499.142 2.50008 503.527 4.78845 507.806 9.56543C512.084 14.3412 516.05 21.3936 519.433 30.3213C526.191 48.1592 530.424 72.9706 530.424 100.5C530.424 128.029 526.191 152.841 519.433 170.679C516.05 179.606 512.084 186.659 507.806 191.435C503.527 196.212 499.142 198.5 494.847 198.5C490.551 198.5 486.167 196.211 481.888 191.435C477.61 186.659 473.642 179.606 470.26 170.679C463.501 152.841 459.27 128.029 459.27 100.5C459.27 72.9706 463.501 48.1592 470.26 30.3213C473.642 21.3936 477.61 14.3412 481.888 9.56543C486.167 4.78852 490.551 2.5 494.847 2.5Z" stroke="#380038" stroke-width="5"/>
<path d="M532.923 2.5C537.219 2.50008 541.603 4.78845 545.882 9.56543C550.16 14.3412 554.126 21.3936 557.509 30.3213C564.267 48.1592 568.5 72.9706 568.5 100.5C568.5 128.029 564.267 152.841 557.509 170.679C554.126 179.606 550.16 186.659 545.882 191.435C541.603 196.212 537.219 198.5 532.923 198.5C528.627 198.5 524.243 196.211 519.964 191.435C515.686 186.659 511.718 179.606 508.336 170.679C501.578 152.841 497.346 128.029 497.346 100.5C497.346 72.9706 501.578 48.1592 508.336 30.3213C511.718 21.3936 515.686 14.3412 519.964 9.56543C524.243 4.78852 528.627 2.5 532.923 2.5Z" stroke="#CF00CF" stroke-width="5"/>
<path d="M571 2.5C575.296 2.50008 579.68 4.78845 583.959 9.56543C588.237 14.3412 592.203 21.3936 595.586 30.3213C602.344 48.1592 606.577 72.9706 606.577 100.5C606.577 128.029 602.344 152.841 595.586 170.679C592.203 179.606 588.237 186.659 583.959 191.435C579.68 196.212 575.296 198.5 571 198.5C566.704 198.5 562.32 196.211 558.041 191.435C553.763 186.659 549.796 179.606 546.413 170.679C539.655 152.841 535.423 128.029 535.423 100.5C535.423 72.9706 539.655 48.1592 546.413 30.3213C549.796 21.3936 553.763 14.3412 558.041 9.56543C562.32 4.78852 566.704 2.5 571 2.5Z" stroke="#CF00CF" stroke-width="5"/>
<path d="M609.077 2.5C613.373 2.50008 617.757 4.78845 622.036 9.56543C626.314 14.3412 630.281 21.3936 633.663 30.3213C640.421 48.1592 644.654 72.9706 644.654 100.5C644.654 128.029 640.421 152.841 633.663 170.679C630.281 179.606 626.314 186.659 622.036 191.435C617.757 196.212 613.373 198.5 609.077 198.5C604.781 198.5 600.397 196.211 596.118 191.435C591.84 186.659 587.873 179.606 584.49 170.679C577.732 152.841 573.5 128.029 573.5 100.5C573.5 72.9706 577.732 48.1592 584.49 30.3213C587.873 21.3936 591.84 14.3412 596.118 9.56543C600.397 4.78852 604.781 2.5 609.077 2.5Z" stroke="#380038" stroke-width="5"/>
<path d="M647.154 2.5C651.45 2.50008 655.834 4.78845 660.113 9.56543C664.391 14.3412 668.358 21.3936 671.74 30.3213C678.499 48.1592 682.731 72.9706 682.731 100.5C682.731 128.029 678.499 152.841 671.74 170.679C668.358 179.606 664.391 186.659 660.113 191.435C655.834 196.212 651.45 198.5 647.154 198.5C642.859 198.5 638.474 196.211 634.195 191.435C629.917 186.659 625.95 179.606 622.567 170.679C615.809 152.841 611.577 128.029 611.577 100.5C611.577 72.9706 615.809 48.1592 622.567 30.3213C625.95 21.3936 629.917 14.3412 634.195 9.56543C638.474 4.78852 642.859 2.5 647.154 2.5Z" stroke="#CF00CF" stroke-width="5"/>
<path d="M685.231 2.5C689.527 2.50008 693.911 4.78845 698.19 9.56543C702.468 14.3412 706.435 21.3936 709.817 30.3213C716.576 48.1592 720.809 72.9706 720.809 100.5C720.809 128.029 716.576 152.841 709.817 170.679C706.435 179.606 702.468 186.659 698.19 191.435C693.911 196.212 689.527 198.5 685.231 198.5C680.936 198.5 676.552 196.211 672.272 191.435C667.995 186.659 664.027 179.606 660.645 170.679C653.886 152.841 649.654 128.029 649.654 100.5C649.654 72.9706 653.886 48.1592 660.645 30.3213C664.027 21.3936 667.995 14.3412 672.272 9.56543C676.552 4.78852 680.936 2.5 685.231 2.5Z" stroke="#CF00CF" stroke-width="5"/>
<path d="M723.308 2.5C727.603 2.50008 731.988 4.78845 736.267 9.56543C740.545 14.3412 744.511 21.3936 747.894 30.3213C754.652 48.1592 758.885 72.9706 758.885 100.5C758.885 128.029 754.652 152.841 747.894 170.679C744.511 179.606 740.545 186.659 736.267 191.435C731.988 196.212 727.603 198.5 723.308 198.5C719.012 198.5 714.628 196.211 710.349 191.435C706.071 186.659 702.103 179.606 698.721 170.679C691.962 152.841 687.73 128.029 687.73 100.5C687.73 72.9706 691.962 48.1592 698.721 30.3213C702.103 21.3936 706.071 14.3412 710.349 9.56543C714.628 4.78852 719.012 2.5 723.308 2.5Z" stroke="#380038" stroke-width="5"/>
<path d="M761.385 2.5C765.68 2.50008 770.065 4.78845 774.344 9.56543C778.622 14.3412 782.588 21.3936 785.971 30.3213C792.729 48.1592 796.962 72.9706 796.962 100.5C796.962 128.029 792.729 152.841 785.971 170.679C782.588 179.606 778.622 186.659 774.344 191.435C770.065 196.212 765.68 198.5 761.385 198.5C757.089 198.5 752.705 196.211 748.426 191.435C744.148 186.659 740.18 179.606 736.798 170.679C730.04 152.841 725.808 128.029 725.808 100.5C725.808 72.9706 730.04 48.1592 736.798 30.3213C740.18 21.3936 744.148 14.3412 748.426 9.56543C752.705 4.78852 757.089 2.5 761.385 2.5Z" stroke="#CF00CF" stroke-width="5"/>
<path d="M799.462 2.5C803.758 2.50008 808.142 4.78845 812.421 9.56543C816.699 14.3412 820.665 21.3936 824.048 30.3213C830.806 48.1592 835.039 72.9706 835.039 100.5C835.039 128.029 830.806 152.841 824.048 170.679C820.665 179.606 816.699 186.659 812.421 191.435C808.142 196.212 803.758 198.5 799.462 198.5C795.166 198.5 790.782 196.211 786.503 191.435C782.225 186.659 778.258 179.606 774.875 170.679C768.117 152.841 763.885 128.029 763.885 100.5C763.885 72.9706 768.117 48.1592 774.875 30.3213C778.258 21.3936 782.225 14.3412 786.503 9.56543C790.782 4.78852 795.166 2.5 799.462 2.5Z" stroke="#CF00CF" stroke-width="5"/>
<path d="M837.539 2.5C841.835 2.50008 846.219 4.78845 850.498 9.56543C854.776 14.3412 858.743 21.3936 862.125 30.3213C868.883 48.1592 873.116 72.9706 873.116 100.5C873.116 128.029 868.883 152.841 862.125 170.679C858.743 179.606 854.776 186.659 850.498 191.435C846.219 196.212 841.835 198.5 837.539 198.5C833.243 198.5 828.859 196.211 824.58 191.435C820.302 186.659 816.335 179.606 812.952 170.679C806.194 152.841 801.962 128.029 801.962 100.5C801.962 72.9706 806.194 48.1592 812.952 30.3213C816.335 21.3936 820.302 14.3412 824.58 9.56543C828.859 4.78852 833.243 2.5 837.539 2.5Z" stroke="#380038" stroke-width="5"/>
<path d="M875.615 2.5C879.911 2.50008 884.295 4.78845 888.574 9.56543C892.852 14.3412 896.819 21.3936 900.201 30.3213C906.96 48.1592 911.192 72.9706 911.192 100.5C911.192 128.029 906.96 152.841 900.201 170.679C896.819 179.606 892.852 186.659 888.574 191.435C884.295 196.212 879.911 198.5 875.615 198.5C871.32 198.5 866.935 196.211 862.656 191.435C858.378 186.659 854.411 179.606 851.028 170.679C844.27 152.841 840.038 128.029 840.038 100.5C840.038 72.9706 844.27 48.1592 851.028 30.3213C854.411 21.3936 858.378 14.3412 862.656 9.56543C866.935 4.78852 871.32 2.5 875.615 2.5Z" stroke="#CF00CF" stroke-width="5"/>
</svg>
