<svg width="914" height="201" viewBox="0 0 914 201" fill="none" xmlns="http://www.w3.org/2000/svg">
<path d="M38.0771 2.5C42.3729 2.50008 46.757 4.78845 51.0361 9.56543C55.3141 14.3412 59.2806 21.3936 62.6631 30.3213C69.4214 48.1592 73.6543 72.9706 73.6543 100.5C73.6543 128.029 69.4214 152.841 62.6631 170.679C59.2806 179.606 55.3141 186.659 51.0361 191.435C46.757 196.212 42.3729 198.5 38.0771 198.5C33.7814 198.5 29.3973 196.211 25.1182 191.435C20.8402 186.659 16.8727 179.606 13.4902 170.679C6.7319 152.841 2.5 128.029 2.5 100.5C2.5 72.9706 6.7319 48.1592 13.4902 30.3213C16.8727 21.3936 20.8402 14.3412 25.1182 9.56543C29.3973 4.78852 33.7814 2.5 38.0771 2.5Z" stroke="#CF00CF" stroke-width="5"/>
<path d="M76.1543 2.5C80.45 2.50008 84.8342 4.78845 89.1133 9.56543C93.3912 14.3412 97.3577 21.3936 100.74 30.3213C107.499 48.1592 111.731 72.9706 111.731 100.5C111.731 128.029 107.499 152.841 100.74 170.679C97.3577 179.606 93.3912 186.659 89.1133 191.435C84.8342 196.212 80.45 198.5 76.1543 198.5C71.8586 198.5 67.4744 196.211 63.1953 191.435C58.9174 186.659 54.9499 179.606 51.5674 170.679C44.8091 152.841 40.5771 128.029 40.5771 100.5C40.5771 72.9706 44.8091 48.1592 51.5674 30.3213C54.9499 21.3936 58.9174 14.3412 63.1953 9.56543C67.4744 4.78852 71.8586 2.5 76.1543 2.5Z" stroke="#380038" stroke-width="5"/>
<path d="M114.231 2.5C118.527 2.50008 122.911 4.78845 127.19 9.56543C131.468 14.3412 135.435 21.3936 138.817 30.3213C145.576 48.1592 149.809 72.9706 149.809 100.5C149.809 128.029 145.576 152.841 138.817 170.679C135.435 179.606 131.468 186.659 127.19 191.435C122.911 196.212 118.527 198.5 114.231 198.5C109.936 198.5 105.552 196.211 101.272 191.435C96.9945 186.659 93.027 179.606 89.6445 170.679C82.8862 152.841 78.6543 128.029 78.6543 100.5C78.6543 72.9706 82.8862 48.1592 89.6445 30.3213C93.027 21.3936 96.9945 14.3412 101.272 9.56543C105.552 4.78852 109.936 2.5 114.231 2.5Z" stroke="#CF00CF" stroke-width="5"/>
<path d="M152.308 2.5C156.603 2.50008 160.988 4.78845 165.267 9.56543C169.545 14.3412 173.511 21.3936 176.894 30.3213C183.652 48.1592 187.885 72.9706 187.885 100.5C187.885 128.029 183.652 152.841 176.894 170.679C173.511 179.606 169.545 186.659 165.267 191.435C160.988 196.212 156.603 198.5 152.308 198.5C148.012 198.5 143.628 196.211 139.349 191.435C135.071 186.659 131.103 179.606 127.721 170.679C120.962 152.841 116.73 128.029 116.73 100.5C116.73 72.9706 120.962 48.1592 127.721 30.3213C131.103 21.3936 135.071 14.3412 139.349 9.56543C143.628 4.78852 148.012 2.5 152.308 2.5Z" stroke="#CF00CF" stroke-width="5"/>
<path d="M190.385 2.5C194.68 2.50008 199.065 4.78845 203.344 9.56543C207.622 14.3412 211.588 21.3936 214.971 30.3213C221.729 48.1592 225.962 72.9706 225.962 100.5C225.962 128.029 221.729 152.841 214.971 170.679C211.588 179.606 207.622 186.659 203.344 191.435C199.065 196.212 194.68 198.5 190.385 198.5C186.089 198.5 181.705 196.211 177.426 191.435C173.148 186.659 169.18 179.606 165.798 170.679C159.04 152.841 154.808 128.029 154.808 100.5C154.808 72.9706 159.04 48.1592 165.798 30.3213C169.18 21.3936 173.148 14.3412 177.426 9.56543C181.705 4.78852 186.089 2.5 190.385 2.5Z" stroke="#380038" stroke-width="5"/>
<path d="M228.462 2.5C232.758 2.50008 237.142 4.78845 241.421 9.56543C245.699 14.3412 249.665 21.3936 253.048 30.3213C259.806 48.1592 264.039 72.9706 264.039 100.5C264.039 128.029 259.806 152.841 253.048 170.679C249.665 179.606 245.699 186.659 241.421 191.435C237.142 196.212 232.758 198.5 228.462 198.5C224.166 198.5 219.782 196.211 215.503 191.435C211.225 186.659 207.258 179.606 203.875 170.679C197.117 152.841 192.885 128.029 192.885 100.5C192.885 72.9706 197.117 48.1592 203.875 30.3213C207.258 21.3936 211.225 14.3412 215.503 9.56543C219.782 4.78852 224.166 2.5 228.462 2.5Z" stroke="#CF00CF" stroke-width="5"/>
<path d="M266.539 2.5C270.835 2.50008 275.219 4.78845 279.498 9.56543C283.776 14.3412 287.743 21.3936 291.125 30.3213C297.883 48.1592 302.116 72.9706 302.116 100.5C302.116 128.029 297.883 152.841 291.125 170.679C287.743 179.606 283.776 186.659 279.498 191.435C275.219 196.212 270.835 198.5 266.539 198.5C262.243 198.5 257.859 196.211 253.58 191.435C249.302 186.659 245.335 179.606 241.952 170.679C235.194 152.841 230.962 128.029 230.962 100.5C230.962 72.9706 235.194 48.1592 241.952 30.3213C245.335 21.3936 249.302 14.3412 253.58 9.56543C257.859 4.78852 262.243 2.5 266.539 2.5Z" stroke="#CF00CF" stroke-width="5"/>
<path d="M304.615 2.5C308.911 2.50008 313.295 4.78845 317.574 9.56543C321.852 14.3412 325.819 21.3936 329.201 30.3213C335.96 48.1592 340.192 72.9706 340.192 100.5C340.192 128.029 335.96 152.841 329.201 170.679C325.819 179.606 321.852 186.659 317.574 191.435C313.295 196.212 308.911 198.5 304.615 198.5C300.32 198.5 295.935 196.211 291.656 191.435C287.378 186.659 283.411 179.606 280.028 170.679C273.27 152.841 269.038 128.029 269.038 100.5C269.038 72.9706 273.27 48.1592 280.028 30.3213C283.411 21.3936 287.378 14.3412 291.656 9.56543C295.935 4.78852 300.32 2.5 304.615 2.5Z" stroke="#380038" stroke-width="5"/>
<path d="M342.692 2.5C346.988 2.50008 351.372 4.78845 355.651 9.56543C359.929 14.3412 363.896 21.3936 367.278 30.3213C374.037 48.1592 378.27 72.9706 378.27 100.5C378.27 128.029 374.037 152.841 367.278 170.679C363.896 179.606 359.929 186.659 355.651 191.435C351.372 196.212 346.988 198.5 342.692 198.5C338.397 198.5 334.012 196.211 329.733 191.435C325.455 186.659 321.488 179.606 318.105 170.679C311.347 152.841 307.115 128.029 307.115 100.5C307.115 72.9706 311.347 48.1592 318.105 30.3213C321.488 21.3936 325.455 14.3412 329.733 9.56543C334.012 4.78852 338.397 2.5 342.692 2.5Z" stroke="#CF00CF" stroke-width="5"/>
<path d="M380.77 2.5C385.065 2.50008 389.449 4.78845 393.729 9.56543C398.006 14.3412 401.973 21.3936 405.355 30.3213C412.114 48.1592 416.347 72.9706 416.347 100.5C416.347 128.029 412.114 152.841 405.355 170.679C401.973 179.606 398.006 186.659 393.729 191.435C389.449 196.212 385.065 198.5 380.77 198.5C376.474 198.5 372.09 196.211 367.811 191.435C363.533 186.659 359.565 179.606 356.183 170.679C349.424 152.841 345.192 128.029 345.192 100.5C345.192 72.9706 349.424 48.1592 356.183 30.3213C359.565 21.3936 363.533 14.3412 367.811 9.56543C372.09 4.78852 376.474 2.5 380.77 2.5Z" stroke="#CF00CF" stroke-width="5"/>
<path d="M418.847 2.5C423.142 2.50008 427.527 4.78845 431.806 9.56543C436.084 14.3412 440.05 21.3936 443.433 30.3213C450.191 48.1592 454.424 72.9706 454.424 100.5C454.424 128.029 450.191 152.841 443.433 170.679C440.05 179.606 436.084 186.659 431.806 191.435C427.527 196.212 423.142 198.5 418.847 198.5C414.551 198.5 410.167 196.211 405.888 191.435C401.61 186.659 397.642 179.606 394.26 170.679C387.501 152.841 383.27 128.029 383.27 100.5C383.27 72.9706 387.501 48.1592 394.26 30.3213C397.642 21.3936 401.61 14.3412 405.888 9.56543C410.167 4.78852 414.551 2.5 418.847 2.5Z" stroke="#380038" stroke-width="5"/>
<path d="M456.923 2.5C461.219 2.50008 465.603 4.78845 469.882 9.56543C474.16 14.3412 478.126 21.3936 481.509 30.3213C488.267 48.1592 492.5 72.9706 492.5 100.5C492.5 128.029 488.267 152.841 481.509 170.679C478.126 179.606 474.16 186.659 469.882 191.435C465.603 196.212 461.219 198.5 456.923 198.5C452.627 198.5 448.243 196.211 443.964 191.435C439.686 186.659 435.718 179.606 432.336 170.679C425.578 152.841 421.346 128.029 421.346 100.5C421.346 72.9706 425.578 48.1592 432.336 30.3213C435.718 21.3936 439.686 14.3412 443.964 9.56543C448.243 4.78852 452.627 2.5 456.923 2.5Z" stroke="#CF00CF" stroke-width="5"/>
<path d="M495 2.5C499.296 2.50008 503.68 4.78845 507.959 9.56543C512.237 14.3412 516.203 21.3936 519.586 30.3213C526.344 48.1592 530.577 72.9706 530.577 100.5C530.577 128.029 526.344 152.841 519.586 170.679C516.203 179.606 512.237 186.659 507.959 191.435C503.68 196.212 499.296 198.5 495 198.5C490.704 198.5 486.32 196.211 482.041 191.435C477.763 186.659 473.796 179.606 470.413 170.679C463.655 152.841 459.423 128.029 459.423 100.5C459.423 72.9706 463.655 48.1592 470.413 30.3213C473.796 21.3936 477.763 14.3412 482.041 9.56543C486.32 4.78852 490.704 2.5 495 2.5Z" stroke="#CF00CF" stroke-width="5"/>
<path d="M533.077 2.5C537.373 2.50008 541.757 4.78845 546.036 9.56543C550.314 14.3412 554.281 21.3936 557.663 30.3213C564.421 48.1592 568.654 72.9706 568.654 100.5C568.654 128.029 564.421 152.841 557.663 170.679C554.281 179.606 550.314 186.659 546.036 191.435C541.757 196.212 537.373 198.5 533.077 198.5C528.781 198.5 524.397 196.211 520.118 191.435C515.84 186.659 511.873 179.606 508.49 170.679C501.732 152.841 497.5 128.029 497.5 100.5C497.5 72.9706 501.732 48.1592 508.49 30.3213C511.873 21.3936 515.84 14.3412 520.118 9.56543C524.397 4.78852 528.781 2.5 533.077 2.5Z" stroke="#380038" stroke-width="5"/>
<path d="M571.154 2.5C575.45 2.50008 579.834 4.78845 584.113 9.56543C588.391 14.3412 592.358 21.3936 595.74 30.3213C602.499 48.1592 606.731 72.9706 606.731 100.5C606.731 128.029 602.499 152.841 595.74 170.679C592.358 179.606 588.391 186.659 584.113 191.435C579.834 196.212 575.45 198.5 571.154 198.5C566.859 198.5 562.474 196.211 558.195 191.435C553.917 186.659 549.95 179.606 546.567 170.679C539.809 152.841 535.577 128.029 535.577 100.5C535.577 72.9706 539.809 48.1592 546.567 30.3213C549.95 21.3936 553.917 14.3412 558.195 9.56543C562.474 4.78852 566.859 2.5 571.154 2.5Z" stroke="#CF00CF" stroke-width="5"/>
<path d="M609.231 2.5C613.527 2.50008 617.911 4.78845 622.19 9.56543C626.468 14.3412 630.435 21.3936 633.817 30.3213C640.576 48.1592 644.809 72.9706 644.809 100.5C644.809 128.029 640.576 152.841 633.817 170.679C630.435 179.606 626.468 186.659 622.19 191.435C617.911 196.212 613.527 198.5 609.231 198.5C604.936 198.5 600.552 196.211 596.272 191.435C591.995 186.659 588.027 179.606 584.645 170.679C577.886 152.841 573.654 128.029 573.654 100.5C573.654 72.9706 577.886 48.1592 584.645 30.3213C588.027 21.3936 591.995 14.3412 596.272 9.56543C600.552 4.78852 604.936 2.5 609.231 2.5Z" stroke="#CF00CF" stroke-width="5"/>
<path d="M647.308 2.5C651.603 2.50008 655.988 4.78845 660.267 9.56543C664.545 14.3412 668.511 21.3936 671.894 30.3213C678.652 48.1592 682.885 72.9706 682.885 100.5C682.885 128.029 678.652 152.841 671.894 170.679C668.511 179.606 664.545 186.659 660.267 191.435C655.988 196.212 651.603 198.5 647.308 198.5C643.012 198.5 638.628 196.211 634.349 191.435C630.071 186.659 626.103 179.606 622.721 170.679C615.962 152.841 611.73 128.029 611.73 100.5C611.73 72.9706 615.962 48.1592 622.721 30.3213C626.103 21.3936 630.071 14.3412 634.349 9.56543C638.628 4.78852 643.012 2.5 647.308 2.5Z" stroke="#380038" stroke-width="5"/>
<path d="M685.385 2.5C689.68 2.50008 694.065 4.78845 698.344 9.56543C702.622 14.3412 706.588 21.3936 709.971 30.3213C716.729 48.1592 720.962 72.9706 720.962 100.5C720.962 128.029 716.729 152.841 709.971 170.679C706.588 179.606 702.622 186.659 698.344 191.435C694.065 196.212 689.68 198.5 685.385 198.5C681.089 198.5 676.705 196.211 672.426 191.435C668.148 186.659 664.18 179.606 660.798 170.679C654.04 152.841 649.808 128.029 649.808 100.5C649.808 72.9706 654.04 48.1592 660.798 30.3213C664.18 21.3936 668.148 14.3412 672.426 9.56543C676.705 4.78852 681.089 2.5 685.385 2.5Z" stroke="#CF00CF" stroke-width="5"/>
<path d="M723.462 2.5C727.758 2.50008 732.142 4.78845 736.421 9.56543C740.699 14.3412 744.665 21.3936 748.048 30.3213C754.806 48.1592 759.039 72.9706 759.039 100.5C759.039 128.029 754.806 152.841 748.048 170.679C744.665 179.606 740.699 186.659 736.421 191.435C732.142 196.212 727.758 198.5 723.462 198.5C719.166 198.5 714.782 196.211 710.503 191.435C706.225 186.659 702.258 179.606 698.875 170.679C692.117 152.841 687.885 128.029 687.885 100.5C687.885 72.9706 692.117 48.1592 698.875 30.3213C702.258 21.3936 706.225 14.3412 710.503 9.56543C714.782 4.78852 719.166 2.5 723.462 2.5Z" stroke="#CF00CF" stroke-width="5"/>
<path d="M761.539 2.5C765.835 2.50008 770.219 4.78845 774.498 9.56543C778.776 14.3412 782.743 21.3936 786.125 30.3213C792.883 48.1592 797.116 72.9706 797.116 100.5C797.116 128.029 792.883 152.841 786.125 170.679C782.743 179.606 778.776 186.659 774.498 191.435C770.219 196.212 765.835 198.5 761.539 198.5C757.243 198.5 752.859 196.211 748.58 191.435C744.302 186.659 740.335 179.606 736.952 170.679C730.194 152.841 725.962 128.029 725.962 100.5C725.962 72.9706 730.194 48.1592 736.952 30.3213C740.335 21.3936 744.302 14.3412 748.58 9.56543C752.859 4.78852 757.243 2.5 761.539 2.5Z" stroke="#380038" stroke-width="5"/>
<path d="M799.615 2.5C803.911 2.50008 808.295 4.78845 812.574 9.56543C816.852 14.3412 820.819 21.3936 824.201 30.3213C830.96 48.1592 835.192 72.9706 835.192 100.5C835.192 128.029 830.96 152.841 824.201 170.679C820.819 179.606 816.852 186.659 812.574 191.435C808.295 196.212 803.911 198.5 799.615 198.5C795.32 198.5 790.935 196.211 786.656 191.435C782.378 186.659 778.411 179.606 775.028 170.679C768.27 152.841 764.038 128.029 764.038 100.5C764.038 72.9706 768.27 48.1592 775.028 30.3213C778.411 21.3936 782.378 14.3412 786.656 9.56543C790.935 4.78852 795.32 2.5 799.615 2.5Z" stroke="#CF00CF" stroke-width="5"/>
<path d="M837.692 2.5C841.988 2.50008 846.372 4.78845 850.651 9.56543C854.929 14.3412 858.896 21.3936 862.278 30.3213C869.037 48.1592 873.27 72.9706 873.27 100.5C873.27 128.029 869.037 152.841 862.278 170.679C858.896 179.606 854.929 186.659 850.651 191.435C846.372 196.212 841.988 198.5 837.692 198.5C833.397 198.5 829.012 196.211 824.733 191.435C820.455 186.659 816.488 179.606 813.105 170.679C806.347 152.841 802.115 128.029 802.115 100.5C802.115 72.9706 806.347 48.1592 813.105 30.3213C816.488 21.3936 820.455 14.3412 824.733 9.56543C829.012 4.78852 833.397 2.5 837.692 2.5Z" stroke="#CF00CF" stroke-width="5"/>
<path d="M875.77 2.5C880.065 2.50008 884.449 4.78845 888.729 9.56543C893.006 14.3412 896.973 21.3936 900.355 30.3213C907.114 48.1592 911.347 72.9706 911.347 100.5C911.347 128.029 907.114 152.841 900.355 170.679C896.973 179.606 893.006 186.659 888.729 191.435C884.449 196.212 880.065 198.5 875.77 198.5C871.474 198.5 867.09 196.211 862.811 191.435C858.533 186.659 854.565 179.606 851.183 170.679C844.424 152.841 840.192 128.029 840.192 100.5C840.192 72.9706 844.424 48.1592 851.183 30.3213C854.565 21.3936 858.533 14.3412 862.811 9.56543C867.09 4.78852 871.474 2.5 875.77 2.5Z" stroke="#380038" stroke-width="5"/>
</svg>
