<svg width="405" height="185" viewBox="0 0 405 185" fill="none" xmlns="http://www.w3.org/2000/svg">
<path d="M347.805 2.5L402.101 93.3406L347.805 182.117" stroke="#380038" stroke-width="5" stroke-linecap="round" stroke-linejoin="round"/>
<path d="M317.5 2.5L371.796 93.3406L317.5 182.117" stroke="#CF00CF" stroke-width="5" stroke-linecap="round" stroke-linejoin="round"/>
<path d="M287.199 2.5L341.495 93.3406L287.199 182.117" stroke="#380038" stroke-width="5" stroke-linecap="round" stroke-linejoin="round"/>
<path d="M254.365 2.5L308.661 93.3406L254.365 182.117" stroke="#CF00CF" stroke-width="5" stroke-linecap="round" stroke-linejoin="round"/>
<path d="M221.537 2.5L275.833 93.3406L221.537 182.117" stroke="#380038" stroke-width="5" stroke-linecap="round" stroke-linejoin="round"/>
<path d="M189.967 2.5L244.263 93.3406L189.967 182.117" stroke="#CF00CF" stroke-width="5" stroke-linecap="round" stroke-linejoin="round"/>
<path d="M126.832 2.5L181.128 93.3406L126.832 182.117" stroke="#CF00CF" stroke-width="5" stroke-linecap="round" stroke-linejoin="round"/>
<path d="M159.664 2.5L213.96 93.3406L159.664 182.117" stroke="#380038" stroke-width="5" stroke-linecap="round" stroke-linejoin="round"/>
<path d="M96.5292 2.5L150.825 93.3406L96.5292 182.117" stroke="#380038" stroke-width="5" stroke-linecap="round" stroke-linejoin="round"/>
<path d="M66.2265 2.5L120.522 93.3406L66.2265 182.117" stroke="#CF00CF" stroke-width="5" stroke-linecap="round" stroke-linejoin="round"/>
<path d="M33.4999 2.58594L87.7959 93.4266L33.4999 182.203" stroke="#380038" stroke-width="5" stroke-linecap="round" stroke-linejoin="round"/>
<path d="M2.49994 2.58594L56.7959 93.4266L2.49994 182.203" stroke="#CF00CF" stroke-width="5" stroke-linecap="round" stroke-linejoin="round"/>
<path d="M347.805 2.5L402.101 93.3406L347.805 182.117" stroke="#CF00CF" stroke-width="5" stroke-linecap="round" stroke-linejoin="round"/>
<path d="M317.5 2.5L371.796 93.3406L317.5 182.117" stroke="#380038" stroke-width="5" stroke-linecap="round" stroke-linejoin="round"/>
<path d="M287.199 2.5L341.495 93.3406L287.199 182.117" stroke="#CF00CF" stroke-width="5" stroke-linecap="round" stroke-linejoin="round"/>
<path d="M254.365 2.5L308.661 93.3406L254.365 182.117" stroke="#380038" stroke-width="5" stroke-linecap="round" stroke-linejoin="round"/>
<path d="M221.537 2.5L275.833 93.3406L221.537 182.117" stroke="#CF00CF" stroke-width="5" stroke-linecap="round" stroke-linejoin="round"/>
<path d="M189.967 2.5L244.263 93.3406L189.967 182.117" stroke="#380038" stroke-width="5" stroke-linecap="round" stroke-linejoin="round"/>
<path d="M126.832 2.5L181.128 93.3406L126.832 182.117" stroke="#380038" stroke-width="5" stroke-linecap="round" stroke-linejoin="round"/>
<path d="M159.664 2.5L213.96 93.3406L159.664 182.117" stroke="#CF00CF" stroke-width="5" stroke-linecap="round" stroke-linejoin="round"/>
<path d="M96.5292 2.5L150.825 93.3406L96.5292 182.117" stroke="#CF00CF" stroke-width="5" stroke-linecap="round" stroke-linejoin="round"/>
<path d="M66.2265 2.5L120.522 93.3406L66.2265 182.117" stroke="#380038" stroke-width="5" stroke-linecap="round" stroke-linejoin="round"/>
<path d="M33.4999 2.58594L87.7959 93.4266L33.4999 182.203" stroke="#CF00CF" stroke-width="5" stroke-linecap="round" stroke-linejoin="round"/>
<path d="M2.49994 2.58594L56.7959 93.4266L2.49994 182.203" stroke="#380038" stroke-width="5" stroke-linecap="round" stroke-linejoin="round"/>
</svg>
