<svg width="550" height="223" viewBox="0 0 550 223" fill="none" xmlns="http://www.w3.org/2000/svg">
<rect x="31" y="134" width="60" height="29" rx="4" stroke="#CF00CF" stroke-width="2"/>
<rect x="31" y="47" width="60" height="29" rx="4" stroke="#CF00CF" stroke-width="2"/>
<rect x="31" y="76" width="60" height="29" rx="4" stroke="#CF00CF" stroke-width="2"/>
<rect x="31.0312" y="105.406" width="60" height="29" rx="4" stroke="#CF00CF" stroke-width="2"/>
<rect x="31" y="163" width="60" height="29" rx="4" fill="#CF00CF" stroke="black" stroke-width="2"/>
<path d="M15.7333 16.5039L1 31.2372V208.037L15.7333 221.904H104.133L118 208.037V31.2372L103.267 16.5039H15.7333Z" stroke="#CF00CF" stroke-width="2"/>
<path d="M26.4356 28.7305L14.8672 41.7853V198.444L26.4356 210.73H95.846L106.734 198.444V41.7853L95.1655 28.7305H26.4356Z" stroke="#CF00CF" stroke-width="2"/>
<path d="M42.6016 16.6L41.604 16.5296L41.5285 17.6H42.6016V16.6ZM45.1649 2.06979L45.0005 1.08341L44.5886 1.15207L44.3479 1.49322L45.1649 2.06979ZM76.9509 2.06935L77.908 1.77985C77.7961 1.40975 77.4808 1.13734 77.0984 1.08029L76.9509 2.06935ZM79.0016 16.6V17.6H80.0016V16.6H79.0016ZM42.6016 16.6L43.5991 16.6704C43.7402 14.6709 44.0368 11.5499 44.4662 8.69668C44.6811 7.26887 44.9267 5.92565 45.1983 4.83058C45.4813 3.68934 45.7601 2.96076 45.982 2.64636L45.1649 2.06979L44.3479 1.49322C43.8862 2.1475 43.5384 3.21502 43.2571 4.34917C42.9644 5.52949 42.708 6.94096 42.4885 8.39901C42.0493 11.3175 41.7478 14.493 41.604 16.5296L42.6016 16.6ZM45.1649 2.06979L45.3294 3.05618C50.0907 2.26238 63.9395 1.13953 76.8033 3.0584L76.9509 2.06935L77.0984 1.08029C63.9866 -0.875562 49.923 0.262735 45.0005 1.08341L45.1649 2.06979ZM76.9509 2.06935L75.9937 2.35884C76.8212 5.09509 78.0016 11.8594 78.0016 16.6H79.0016H80.0016C80.0016 11.6532 78.7894 4.69397 77.908 1.77985L76.9509 2.06935ZM79.0016 16.6V15.6H42.6016V16.6V17.6H79.0016V16.6Z" fill="#CF00CF"/>
<rect x="462" y="163" width="60" height="29" rx="4" fill="#CF00CF" stroke="black" stroke-width="2"/>
<rect x="462" y="134" width="60" height="29" rx="4" fill="#CF00CF" stroke="black" stroke-width="2"/>
<rect x="462" y="47" width="60" height="29" rx="4" fill="#CF00CF" stroke="black" stroke-width="2"/>
<rect x="462" y="76" width="60" height="29" rx="4" fill="#CF00CF" stroke="black" stroke-width="2"/>
<rect x="462.031" y="105.406" width="60" height="29" rx="4" fill="#CF00CF" stroke="black" stroke-width="2"/>
<path d="M446.733 16.5039L432 31.2372V208.037L446.733 221.904H535.133L549 208.037V31.2372L534.267 16.5039H446.733Z" stroke="#CF00CF" stroke-width="2"/>
<path d="M457.436 28.7305L445.867 41.7853V198.444L457.436 210.73H526.846L537.734 198.444V41.7853L526.165 28.7305H457.436Z" stroke="#CF00CF" stroke-width="2"/>
<path d="M473.602 16.6L472.604 16.5296L472.529 17.6H473.602V16.6ZM476.165 2.06979L476 1.08341L475.589 1.15207L475.348 1.49322L476.165 2.06979ZM507.951 2.06935L508.908 1.77985C508.796 1.40975 508.481 1.13734 508.098 1.08029L507.951 2.06935ZM510.002 16.6V17.6H511.002V16.6H510.002ZM473.602 16.6L474.599 16.6704C474.74 14.6709 475.037 11.5499 475.466 8.69668C475.681 7.26887 475.927 5.92565 476.198 4.83058C476.481 3.68934 476.76 2.96076 476.982 2.64636L476.165 2.06979L475.348 1.49322C474.886 2.1475 474.538 3.21502 474.257 4.34917C473.964 5.52949 473.708 6.94096 473.489 8.39901C473.049 11.3175 472.748 14.493 472.604 16.5296L473.602 16.6ZM476.165 2.06979L476.329 3.05618C481.091 2.26238 494.939 1.13953 507.803 3.0584L507.951 2.06935L508.098 1.08029C494.987 -0.875562 480.923 0.262735 476 1.08341L476.165 2.06979ZM507.951 2.06935L506.994 2.35884C507.821 5.09509 509.002 11.8594 509.002 16.6H510.002H511.002C511.002 11.6532 509.789 4.69397 508.908 1.77985L507.951 2.06935ZM510.002 16.6V15.6H473.602V16.6V17.6H510.002V16.6Z" fill="#CF00CF"/>
<path d="M136 75L166 32.5L197 75L228 32L258 75L289 32L319 75L351 32L381 75H413" stroke="#CF00CF" stroke-width="2"/>
<path d="M136 119L166 76.5L197 119L228 76L258 119L289 76L319 119L351 76L381 119H413" stroke="white" stroke-width="2"/>
<path d="M136 163L166 120.5L197 163L228 120L258 163L289 120L319 163L351 120L381 163H413" stroke="#CF00CF" stroke-width="2"/>
<path d="M136 205L166 162.5L197 205L228 162L258 205L289 162L319 205L351 162L381 205H413" stroke="white" stroke-width="2"/>
</svg>
