<svg width="122" height="121" viewBox="0 0 122 121" fill="none" xmlns="http://www.w3.org/2000/svg">
<path d="M83.6229 3.13672L53.4859 28.7057L22.1061 3.13672L38.8835 47.1029L3.77539 45.8556L32.3589 63.3173L22.1061 95.1226L42.3011 80.1554L53.4859 106.972L64.0494 82.3381L94.4147 120.137L76.4771 82.3381L106.562 86.7081L85.4871 68.93L117.775 56.9939L85.4871 50.5328L108.431 25.4224L74.6129 33.0711L83.6229 3.13672Z" fill="#CF00CF" stroke="white" stroke-width="2"/>
<circle cx="51.2754" cy="47.6367" r="10.5" fill="white"/>
<circle cx="51.7754" cy="47.1367" r="7" fill="black"/>
<circle cx="73.2754" cy="47.6367" r="10.5" fill="white"/>
<circle cx="73.7754" cy="47.1367" r="7" fill="black"/>
<circle cx="54.2754" cy="44.6367" r="2.5" fill="white"/>
<circle cx="49.2754" cy="50.6367" r="1.5" fill="white"/>
<circle cx="76.2754" cy="44.6367" r="2.5" fill="white"/>
<circle cx="71.2754" cy="50.6367" r="1.5" fill="white"/>
</svg>
