<svg width="131" height="133" viewBox="0 0 131 133" fill="none" xmlns="http://www.w3.org/2000/svg">
<path d="M61.3476 1L55.2575 52.8492L12.073 24.968L41.4163 60.6755H1L41.4163 71.9258L19.824 100.785L50.2747 85.6218L41.4163 131.112L66.3305 88.5566L90.691 116.438L85.7082 85.6218L130 76.8172L82.9399 68.5018L124.464 31.3269L71.867 52.8492L61.3476 1Z" fill="#380038" stroke="white" stroke-width="2" stroke-linecap="round" stroke-linejoin="round"/>
<circle cx="73.3984" cy="65.0941" r="8.95259" transform="rotate(-179.714 73.3984 65.0941)" fill="white" stroke="white"/>
<circle cx="72.9456" cy="65.538" r="6.30172" transform="rotate(-179.714 72.9456 65.538)" fill="black"/>
<circle cx="53.5927" cy="64.9926" r="8.95259" transform="rotate(-179.714 53.5927 64.9926)" fill="white" stroke="white"/>
<circle cx="53.1409" cy="65.4404" r="6.30172" transform="rotate(-179.714 53.1409 65.4404)" fill="black"/>
<circle cx="70.6845" cy="67.7773" r="1.75062" transform="rotate(-179.714 70.6845 67.7773)" fill="white" stroke="white"/>
<circle cx="75.212" cy="62.4007" r="0.850369" transform="rotate(-179.714 75.212 62.4007)" fill="white" stroke="white"/>
<circle cx="50.8788" cy="67.6796" r="1.75062" transform="rotate(-179.714 50.8788 67.6796)" fill="white" stroke="white"/>
<circle cx="55.4074" cy="62.2992" r="0.850369" transform="rotate(-179.714 55.4074 62.2992)" fill="white" stroke="white"/>
</svg>
