<svg width="148" height="140" viewBox="0 0 148 140" fill="none" xmlns="http://www.w3.org/2000/svg">
<path d="M65.3802 7.74571L60.1192 48.6774L14.4473 27.1777L48.8245 62.9442L6.88281 76.0128L48.8245 82.0126L40.5558 120.489L68.2116 92.1309L82.7355 131.58L87.4867 85.2364L129.461 113.991L102.883 76.0138L139.883 53.0138L101.383 53.0138L120.883 20.5138L75.7184 49.6485L65.3802 7.74571Z" fill="#CF00CF" stroke="white" stroke-width="2" stroke-linecap="round" stroke-linejoin="round"/>
<circle cx="63.1929" cy="66.0143" r="11.7188" transform="rotate(-0.448244 63.1929 66.0143)" fill="white"/>
<circle cx="63.7464" cy="65.4513" r="7.8125" transform="rotate(-0.448244 63.7464 65.4513)" fill="black"/>
<circle cx="87.7456" cy="65.8229" r="11.7188" transform="rotate(-0.448244 87.7456 65.8229)" fill="white"/>
<circle cx="88.2992" cy="65.2599" r="7.8125" transform="rotate(-0.448244 88.2992 65.2599)" fill="black"/>
<circle cx="66.5141" cy="62.6403" r="2.79018" transform="rotate(-0.448244 66.5141 62.6403)" fill="white"/>
<circle cx="60.987" cy="69.3806" r="1.67411" transform="rotate(-0.448244 60.987 69.3806)" fill="white"/>
<circle cx="91.0678" cy="62.4489" r="2.79018" transform="rotate(-0.448244 91.0678 62.4489)" fill="white"/>
<circle cx="85.5397" cy="69.1892" r="1.67411" transform="rotate(-0.448244 85.5397 69.1892)" fill="white"/>
</svg>
