<svg width="1480" height="197" viewBox="0 0 1480 197" fill="none" xmlns="http://www.w3.org/2000/svg">
<path d="M2.50098 94.0258L19.3974 48.0182L34.1136 94.0258L44.4694 63.6803L72.2667 193.872L106.605 2.5L117.505 58.2965L126.226 41.166L136.001 98.6767L154.024 17.6727L179.641 131.713L199.807 72.9797L207.983 94.0258H283.501" stroke="#CF00CF" stroke-width="5" stroke-linecap="round" stroke-linejoin="round"/>
<path d="M283.501 94.0258L300.397 48.0182L315.114 94.0258L325.469 63.6803L353.267 193.872L387.605 2.5L398.505 58.2965L407.226 41.166L417.001 98.6767L435.024 17.6727L460.641 131.713L480.807 72.9797L488.983 94.0258H564.501" stroke="#CF00CF" stroke-width="5" stroke-linecap="round" stroke-linejoin="round"/>
<path d="M564.501 94.0311L581.397 48.0234L596.114 94.0311L606.469 63.6856L634.267 193.877V193.876" stroke="#CF00CF" stroke-width="5" stroke-linecap="round" stroke-linejoin="round"/>
<path d="M564.501 94.2133L581.397 48.2057L596.114 94.2133L606.469 63.8678L634.267 194.06L668.605 2.6875L679.505 58.484L688.226 41.3535L698.001 98.8642L716.024 17.8602L741.641 131.9L761.807 73.1672L769.983 94.2133H845.501" stroke="#CF00CF" stroke-width="5" stroke-linecap="round" stroke-linejoin="round"/>
<path d="M845.501 94.2133L862.397 48.2057L877.114 94.2133L887.469 63.8678L915.267 194.06L949.605 2.6875L960.505 58.484L969.226 41.3535L979.001 98.8642L997.024 17.8602L1022.64 131.9L1042.81 73.1672L1050.98 94.2133H1126.5" stroke="#CF00CF" stroke-width="5" stroke-linecap="round" stroke-linejoin="round"/>
<path d="M1126.5 94.2186L1143.4 48.2109L1158.11 94.2186L1168.47 63.8731L1196.27 194.065V194.064" stroke="#CF00CF" stroke-width="5" stroke-linecap="round" stroke-linejoin="round"/>
<path d="M845.501 94.2133L862.397 48.2057L877.114 94.2133L887.469 63.8678L915.267 194.06L949.605 2.6875L960.505 58.484L969.226 41.3535L979.001 98.8642L997.024 17.8602L1022.64 131.9L1042.81 73.1672L1050.98 94.2133H1126.5" stroke="#CF00CF" stroke-width="5" stroke-linecap="round" stroke-linejoin="round"/>
<path d="M1126.5 94.2133L1143.4 48.2057L1158.11 94.2133L1168.47 63.8678L1196.27 194.06L1230.6 2.6875L1241.51 58.484L1250.23 41.3535L1260 98.8642L1278.02 17.8602L1303.64 131.9L1323.81 73.1672L1331.98 94.2133H1407.5" stroke="#CF00CF" stroke-width="5" stroke-linecap="round" stroke-linejoin="round"/>
<path d="M1126.5 94.2186L1143.4 48.2109L1158.11 94.2186L1168.47 63.8731L1196.27 194.065V194.064" stroke="#CF00CF" stroke-width="5" stroke-linecap="round" stroke-linejoin="round"/>
<path d="M1407.5 94.2186L1424.4 48.2109L1439.11 94.2186L1449.47 63.8731L1477.27 194.065V194.064" stroke="#CF00CF" stroke-width="5" stroke-linecap="round" stroke-linejoin="round"/>
</svg>
