<svg width="550" height="223" viewBox="0 0 550 223" fill="none" xmlns="http://www.w3.org/2000/svg">
<rect x="31" y="163" width="60" height="29" rx="4" fill="#CF00CF" stroke="#CF00CF" stroke-width="2"/>
<rect x="31" y="134" width="60" height="29" rx="4" stroke="#CF00CF" stroke-width="2"/>
<rect x="31" y="47" width="60" height="29" rx="4" stroke="#CF00CF" stroke-width="2"/>
<rect x="31" y="76" width="60" height="29" rx="4" stroke="#CF00CF" stroke-width="2"/>
<rect x="31.0332" y="105.406" width="60" height="29" rx="4" stroke="#CF00CF" stroke-width="2"/>
<path d="M15.7333 16.5039L1 31.2372V208.037L15.7333 221.904H104.133L118 208.037V31.2372L103.267 16.5039H15.7333Z" stroke="#CF00CF" stroke-width="2"/>
<path d="M26.4356 28.7305L14.8672 41.7853V198.444L26.4356 210.73H95.846L106.734 198.444V41.7853L95.1655 28.7305H26.4356Z" stroke="#CF00CF" stroke-width="2"/>
<path d="M42.5986 16.6L41.6011 16.5296L41.5256 17.6H42.5986V16.6ZM45.162 2.06979L44.9976 1.08341L44.5857 1.15207L44.345 1.49322L45.162 2.06979ZM76.9479 2.06935L77.9051 1.77985C77.7932 1.40975 77.4779 1.13734 77.0955 1.08029L76.9479 2.06935ZM78.9986 16.6V17.6H79.9986V16.6H78.9986ZM42.5986 16.6L43.5962 16.6704C43.7373 14.6709 44.0339 11.5499 44.4633 8.69668C44.6782 7.26887 44.9238 5.92565 45.1954 4.83058C45.4784 3.68934 45.7572 2.96076 45.9791 2.64636L45.162 2.06979L44.345 1.49322C43.8833 2.1475 43.5354 3.21502 43.2542 4.34917C42.9615 5.52949 42.705 6.94096 42.4856 8.39901C42.0463 11.3175 41.7448 14.493 41.6011 16.5296L42.5986 16.6ZM45.162 2.06979L45.3265 3.05618C50.0878 2.26238 63.9366 1.13953 76.8004 3.0584L76.9479 2.06935L77.0955 1.08029C63.9837 -0.875562 49.9201 0.262735 44.9976 1.08341L45.162 2.06979ZM76.9479 2.06935L75.9907 2.35884C76.8183 5.09509 77.9986 11.8594 77.9986 16.6H78.9986H79.9986C79.9986 11.6532 78.7865 4.69397 77.9051 1.77985L76.9479 2.06935ZM78.9986 16.6V15.6H42.5986V16.6V17.6H78.9986V16.6Z" fill="#CF00CF"/>
<rect x="462" y="163" width="60" height="29" rx="4" fill="#CF00CF" stroke="black" stroke-width="2"/>
<rect x="462" y="134" width="60" height="29" rx="4" fill="#CF00CF" stroke="black" stroke-width="2"/>
<rect x="462" y="47" width="60" height="29" rx="4" fill="#CF00CF" stroke="black" stroke-width="2"/>
<rect x="462" y="76" width="60" height="29" rx="4" fill="#CF00CF" stroke="black" stroke-width="2"/>
<rect x="462.033" y="105.406" width="60" height="29" rx="4" fill="#CF00CF" stroke="black" stroke-width="2"/>
<path d="M446.733 16.5039L432 31.2372V208.037L446.733 221.904H535.133L549 208.037V31.2372L534.267 16.5039H446.733Z" stroke="#CF00CF" stroke-width="2"/>
<path d="M457.436 28.7305L445.867 41.7853V198.444L457.436 210.73H526.846L537.734 198.444V41.7853L526.165 28.7305H457.436Z" stroke="#CF00CF" stroke-width="2"/>
<path d="M473.599 16.6L472.601 16.5296L472.526 17.6H473.599V16.6ZM476.162 2.06979L475.998 1.08341L475.586 1.15207L475.345 1.49322L476.162 2.06979ZM507.948 2.06935L508.905 1.77985C508.793 1.40975 508.478 1.13734 508.095 1.08029L507.948 2.06935ZM509.999 16.6V17.6H510.999V16.6H509.999ZM473.599 16.6L474.596 16.6704C474.737 14.6709 475.034 11.5499 475.463 8.69668C475.678 7.26887 475.924 5.92565 476.195 4.83058C476.478 3.68934 476.757 2.96076 476.979 2.64636L476.162 2.06979L475.345 1.49322C474.883 2.1475 474.535 3.21502 474.254 4.34917C473.961 5.52949 473.705 6.94096 473.486 8.39901C473.046 11.3175 472.745 14.493 472.601 16.5296L473.599 16.6ZM476.162 2.06979L476.326 3.05618C481.088 2.26238 494.937 1.13953 507.8 3.0584L507.948 2.06935L508.095 1.08029C494.984 -0.875562 480.92 0.262735 475.998 1.08341L476.162 2.06979ZM507.948 2.06935L506.991 2.35884C507.818 5.09509 508.999 11.8594 508.999 16.6H509.999H510.999C510.999 11.6532 509.786 4.69397 508.905 1.77985L507.948 2.06935ZM509.999 16.6V15.6H473.599V16.6V17.6H509.999V16.6Z" fill="#CF00CF"/>
<path d="M136 75L166 32.5L197 75L228 32L258 75L289 32L319 75L351 32L381 75H413" stroke="#CF00CF" stroke-width="2"/>
<path d="M136 119L166 76.5L197 119L228 76L258 119L289 76L319 119L351 76L381 119H413" stroke="white" stroke-width="2"/>
<path d="M136 163L166 120.5L197 163L228 120L258 163L289 120L319 163L351 120L381 163H413" stroke="#CF00CF" stroke-width="2"/>
<path d="M136 205L166 162.5L197 205L228 162L258 205L289 162L319 205L351 162L381 205H413" stroke="white" stroke-width="2"/>
</svg>
