<svg width="278" height="177" viewBox="0 0 278 177" fill="none" xmlns="http://www.w3.org/2000/svg">
<path d="M0.817383 44.7305L30.8174 2.23047L61.8174 44.7305L92.8174 1.73047L122.817 44.7305L153.817 1.73047L183.817 44.7305L215.817 1.73047L245.817 44.7305H277.817" stroke="white" stroke-width="2"/>
<path d="M0.817383 88.7305L30.8174 46.2305L61.8174 88.7305L92.8174 45.7305L122.817 88.7305L153.817 45.7305L183.817 88.7305L215.817 45.7305L245.817 88.7305H277.817" stroke="#CF00CF" stroke-width="2"/>
<path d="M0.817383 132.73L30.8174 90.2305L61.8174 132.73L92.8174 89.7305L122.817 132.73L153.817 89.7305L183.817 132.73L215.817 89.7305L245.817 132.73H277.817" stroke="white" stroke-width="2"/>
<path d="M0.817383 174.73L30.8174 132.23L61.8174 174.73L92.8174 131.73L122.817 174.73L153.817 131.73L183.817 174.73L215.817 131.73L245.817 174.73H277.817" stroke="#CF00CF" stroke-width="2"/>
</svg>
