<svg width="196" height="32" viewBox="0 0 196 32" fill="none" xmlns="http://www.w3.org/2000/svg">
<path d="M158.5 13L157 15L160 19L160.5 13H158.5Z" fill="white" stroke="white" stroke-width="0.1" stroke-linecap="round" stroke-linejoin="round"/>
<path d="M52.7481 16.8604H67.0327L67.544 17.3717V22.5167H49.9999V25.0093L51.0225 26L65.0194 26.032L69.2696 21.7817L69.3336 18.2026L66.2018 14.8791H51.9173L51.4379 14.3998V9.25478L53.2914 7.4013L55.9118 9.22282H66.4255V12.3226L67.4481 13.3133H69.9088V11.7474L63.901 5.73956H53.9305C53.8027 5.86739 49.6803 9.95782 49.6803 9.95782L49.6483 13.537L52.7481 16.8604Z" fill="white"/>
<path d="M143.506 16.8604H157.791L158.302 17.3717V22.5167H140.758V25.0093L141.78 26L155.777 26.032L160.027 21.7817L160.091 18.2026L156.96 14.8791H142.675L142.196 14.3998V9.25478L144.049 7.4013L146.67 9.22282H157.183V12.3226L158.206 13.3133H160.667V11.7474L154.659 5.73956H144.688C144.561 5.86739 140.438 9.95782 140.438 9.95782L140.406 13.537L143.506 16.8604Z" fill="white"/>
<path d="M22.082 10.1496V12.9617L19.9728 15.1987L22.082 17.3398V19.6726C20.6759 21.0787 19.3337 22.4528 18.2152 23.5713V25.0093C17.8317 25.3928 17.608 25.6165 17.2246 26H7.38196L1.82152 19.7046V6.44261L2.81217 5.73956H17.7039L22.082 10.1496ZM20.0367 16.5728H7.28609L5.30478 14.5915L3.54717 16.3172V20.7272L5.30478 22.5167H18.2152L20.0367 20.7272V16.5728ZM20.3563 13.6009V9.22282H9.23544L6.23152 6.50652L5.30478 7.46521V13.8246L6.07174 14.5915H19.3657L20.3563 13.6009ZM42.8894 16.8604H28.6048L28.0935 17.3717V22.5167H45.6377V25.0093L44.6151 26L30.6181 26.032L26.3679 21.7817L26.304 18.2026L29.4357 14.8791H43.7203L44.1996 14.3998V9.25478L42.3461 7.4013L39.7257 9.22282H29.212V12.3226L28.1894 13.3133H25.7287V11.7474L31.7366 5.73956H41.707C41.8348 5.86739 45.9572 9.95782 45.9572 9.95782L45.9892 13.537L42.8894 16.8604ZM85.996 5.73956L92.5151 12.4185V18.9376L87.9134 23.5713V25.0093C87.5299 25.3928 87.3062 25.6165 86.9227 26H77.911L72.3506 20.0241V6.73021L73.3412 5.73956H85.996ZM89.0319 21.3983V9.22282H79.7645L76.7606 6.53848L75.8338 7.46521V14.8791L74.0762 16.6367V20.7272L75.8338 22.5167H87.9134L89.0319 21.3983ZM111.643 16.8604H97.3585L96.8472 17.3717L96.8792 22.5167H114.391V25.0093L113.369 26H99.3718L95.0896 21.7178V18.2026L98.1894 14.8791H112.474L112.953 14.3998V9.22282L111.1 7.4013L108.479 9.22282H96.3679L95.3772 8.23217V5.73956H110.461L114.775 10.0217V13.537L111.643 16.8604ZM118.231 10.2774L119.222 9.28674H120.66L124.239 5.73956H131.014L137.021 11.7474V21.4622L135.999 22.4528H134.561L131.014 26H124.239L118.231 19.9922V10.2774ZM126.635 9.22282H121.714V22.4528L123.504 24.2743H126.859C126.859 24.2743 128.585 22.5487 128.585 22.5167H133.506V9.28674L131.717 7.46521H128.361L126.635 9.22282Z" fill="white"/>
</svg>
