<svg width="119" height="223" viewBox="0 0 119 223" fill="none" xmlns="http://www.w3.org/2000/svg">
<rect x="31" y="163" width="60" height="29" rx="4" fill="#CF00CF" stroke="black" stroke-width="2"/>
<rect x="31" y="134" width="60" height="29" rx="4" fill="#CF00CF" stroke="black" stroke-width="2"/>
<rect x="31" y="47" width="60" height="29" rx="4" stroke="#CF00CF" stroke-width="2"/>
<rect x="31" y="76" width="60" height="29" rx="4" stroke="#CF00CF" stroke-width="2"/>
<rect x="31" y="105" width="60" height="29" rx="4" fill="#CF00CF" stroke="black" stroke-width="2"/>
<path d="M15.7333 16.5039L1 31.2372V208.037L15.7333 221.904H104.133L118 208.037V31.2372L103.267 16.5039H15.7333Z" stroke="#CF00CF" stroke-width="2"/>
<path d="M26.4356 28.7305L14.8672 41.7853V198.444L26.4356 210.73H95.846L106.734 198.444V41.7853L95.1655 28.7305H26.4356Z" stroke="#CF00CF" stroke-width="2"/>
<path d="M42.5986 16.6L41.6011 16.5296L41.5256 17.6H42.5986V16.6ZM45.162 2.06979L44.9976 1.08341L44.5857 1.15207L44.345 1.49322L45.162 2.06979ZM76.9479 2.06935L77.9051 1.77985C77.7932 1.40975 77.4779 1.13734 77.0955 1.08029L76.9479 2.06935ZM78.9986 16.6V17.6H79.9986V16.6H78.9986ZM42.5986 16.6L43.5962 16.6704C43.7373 14.6709 44.0339 11.5499 44.4633 8.69668C44.6782 7.26887 44.9238 5.92565 45.1954 4.83058C45.4784 3.68934 45.7572 2.96076 45.9791 2.64636L45.162 2.06979L44.345 1.49322C43.8833 2.1475 43.5354 3.21502 43.2542 4.34917C42.9615 5.52949 42.705 6.94096 42.4856 8.39901C42.0463 11.3175 41.7448 14.493 41.6011 16.5296L42.5986 16.6ZM45.162 2.06979L45.3265 3.05618C50.0878 2.26238 63.9366 1.13953 76.8004 3.0584L76.9479 2.06935L77.0955 1.08029C63.9837 -0.875562 49.9201 0.262735 44.9976 1.08341L45.162 2.06979ZM76.9479 2.06935L75.9907 2.35884C76.8183 5.09509 77.9986 11.8594 77.9986 16.6H78.9986H79.9986C79.9986 11.6532 78.7865 4.69397 77.9051 1.77985L76.9479 2.06935ZM78.9986 16.6V15.6H42.5986V16.6V17.6H78.9986V16.6Z" fill="#CF00CF"/>
</svg>
