<svg width="62" height="89" viewBox="0 0 62 89" fill="none" xmlns="http://www.w3.org/2000/svg">
<path d="M30.3603 30.6919L28.3917 0.0684218L24.6958 33.5364L11.3554 11.3701L19.4674 36.4767L4.01056 31.0417L14.7648 43.5336L1.72879 49.3344L11.3556 52.4072L2.44109 60.6774L15.7887 59.8392L10.8639 71.8922L21.9733 64.433L19.9733 88.3534L29.4182 64.433L36.8099 79.3192L35.5779 61.8666L51.1826 74.8021L42.7643 57.3495L61.0381 57.3495L46.8707 50.3685L56.2627 41.9953L44.0925 41.0988L53.5199 27.3396L37.8886 34.4896L39.4558 23.5964L30.5013 32.9369L30.3603 30.6919Z" fill="black"/>
<path d="M19.4674 36.4767L4.01056 31.0417L14.7648 43.5336L1.72879 49.3344L11.3556 52.4072L2.44109 60.6774L15.7887 59.8392L10.8639 71.8922L21.9733 64.433L19.9733 88.3534L29.4182 64.433L36.8099 79.3192L35.5779 61.8666L51.1826 74.8021L42.7643 57.3495L61.0381 57.3495L46.8707 50.3685L56.2627 41.9953L44.0925 41.0988L53.5199 27.3396L37.8886 34.4896L39.4558 23.5964L30.5013 32.9369L30.3603 30.6919L28.3917 0.0684218L24.6958 33.5364L11.3554 11.3701L19.4674 36.4767ZM19.4674 36.4767C16.7921 29.7251 21.4892 38.6273 19.4674 36.4767Z" stroke="#CF00CF" stroke-width="1.23194"/>
</svg>
