<svg width="150" height="216" viewBox="0 0 150 216" fill="none" xmlns="http://www.w3.org/2000/svg">
<path d="M73.9319 74.7364L69.1379 0.162803L60.1378 81.6632L27.6517 27.6844L47.4056 88.8235L9.76558 75.5883L35.9541 106.008L4.20909 120.134L27.6519 127.617L5.94367 147.756L38.4475 145.715L26.4547 175.066L53.5081 156.902L48.6377 215.152L71.6377 156.902L89.6377 193.152L86.6377 150.652L124.638 182.152L104.138 139.652L148.638 139.652L114.138 122.652L137.009 102.262L107.372 100.079L130.33 66.5729L92.2645 83.9844L96.0809 57.4577L74.2752 80.2033L73.9319 74.7364Z" fill="black"/>
<path d="M47.4056 88.8235L9.76558 75.5883L35.9541 106.008L4.20909 120.134L27.6519 127.617L5.94367 147.756L38.4475 145.715L26.4547 175.066L53.5081 156.902L48.6377 215.152L71.6377 156.902L89.6377 193.152L86.6377 150.652L124.638 182.152L104.138 139.652L148.638 139.652L114.138 122.652L137.009 102.262L107.372 100.079L130.33 66.5729L92.2645 83.9844L96.0809 57.4577L74.2752 80.2033L73.9319 74.7364L69.1379 0.162803L60.1378 81.6632L27.6517 27.6844L47.4056 88.8235ZM47.4056 88.8235C40.891 72.3819 52.3291 94.0606 47.4056 88.8235Z" stroke="#CF00CF" stroke-width="3"/>
</svg>
