<svg width="262" height="269" viewBox="0 0 262 269" fill="none" xmlns="http://www.w3.org/2000/svg">
<path d="M172.5 1L167 54L128 25.5L154.5 62H118L154.5 73.5L135 103L162.5 87.5L154.5 134L177 90.5L199 119L194.5 87.5L234.5 78.5L192 70L229.5 32L182 54L172.5 1Z" stroke="#CF00CF" stroke-width="2" stroke-linecap="round" stroke-linejoin="round"/>
<path d="M159.5 134.5L154 187.5L115 159L141.5 195.5H105L141.5 207L122 236.5L149.5 221L141.5 267.5L164 224L186 252.5L181.5 221L221.5 212L179 203.5L216.5 165.5L169 187.5L159.5 134.5Z" stroke="#CF00CF" stroke-width="2" stroke-linecap="round" stroke-linejoin="round"/>
<path d="M55.5 53.5L50 106.5L11 78L37.5 114.5H1L37.5 126L18 155.5L45.5 140L37.5 186.5L60 143L82 171.5L77.5 140L117.5 131L75 122.5L112.5 84.5L65 106.5L55.5 53.5Z" stroke="#CF00CF" stroke-width="2" stroke-linecap="round" stroke-linejoin="round"/>
<path d="M57.1159 99L55.0858 118.526L40.691 108.026L50.4721 121.474H37L50.4721 125.711L43.2747 136.579L53.4249 130.868L50.4721 148L58.7768 131.974L66.897 142.474L65.2361 130.868L80 127.553L64.3133 124.421L78.1545 110.421L60.6223 118.526L57.1159 99Z" stroke="#CF00CF" stroke-width="2" stroke-linecap="round" stroke-linejoin="round"/>
<path d="M59.6481 201L57.6652 220.526L43.6052 210.026L53.1588 223.474H40L53.1588 227.711L46.1288 238.579L56.0429 232.868L53.1588 250L61.2704 233.974L69.2017 244.474L67.5794 232.868L82 229.553L66.6781 226.421L80.1974 212.421L63.073 220.526L59.6481 201Z" stroke="#CF00CF" stroke-width="2" stroke-linecap="round" stroke-linejoin="round"/>
<path d="M238.116 104L236.086 123.526L221.691 113.026L231.472 126.474H218L231.472 130.711L224.275 141.579L234.425 135.868L231.472 153L239.777 136.974L247.897 147.474L246.236 135.868L261 132.553L245.313 129.421L259.155 115.421L241.622 123.526L238.116 104Z" stroke="#CF00CF" stroke-width="2" stroke-linecap="round" stroke-linejoin="round"/>
<path d="M174.116 46L172.086 65.5263L157.691 55.0263L167.472 68.4737H154L167.472 72.7105L160.275 83.5789L170.425 77.8684L167.472 95L175.777 78.9737L183.897 89.4737L182.236 77.8684L197 74.5526L181.313 71.4211L195.155 57.4211L177.622 65.5263L174.116 46Z" stroke="#CF00CF" stroke-width="2" stroke-linecap="round" stroke-linejoin="round"/>
<path d="M172.5 1L167 54L128 25.5L154.5 62H118L154.5 73.5L135 103L162.5 87.5L154.5 134L177 90.5L199 119L194.5 87.5L234.5 78.5L192 70L229.5 32L182 54L172.5 1Z" stroke="#CF00CF" stroke-width="2" stroke-linecap="round" stroke-linejoin="round"/>
<path d="M159.5 134.5L154 187.5L115 159L141.5 195.5H105L141.5 207L122 236.5L149.5 221L141.5 267.5L164 224L186 252.5L181.5 221L221.5 212L179 203.5L216.5 165.5L169 187.5L159.5 134.5Z" stroke="#CF00CF" stroke-width="2" stroke-linecap="round" stroke-linejoin="round"/>
<path d="M55.5 53.5L50 106.5L11 78L37.5 114.5H1L37.5 126L18 155.5L45.5 140L37.5 186.5L60 143L82 171.5L77.5 140L117.5 131L75 122.5L112.5 84.5L65 106.5L55.5 53.5Z" stroke="#CF00CF" stroke-width="2" stroke-linecap="round" stroke-linejoin="round"/>
<path d="M57.1159 99L55.0858 118.526L40.691 108.026L50.4721 121.474H37L50.4721 125.711L43.2747 136.579L53.4249 130.868L50.4721 148L58.7768 131.974L66.897 142.474L65.2361 130.868L80 127.553L64.3133 124.421L78.1545 110.421L60.6223 118.526L57.1159 99Z" stroke="white" stroke-width="2" stroke-linecap="round" stroke-linejoin="round"/>
<path d="M59.6481 201L57.6652 220.526L43.6052 210.026L53.1588 223.474H40L53.1588 227.711L46.1288 238.579L56.0429 232.868L53.1588 250L61.2704 233.974L69.2017 244.474L67.5794 232.868L82 229.553L66.6781 226.421L80.1974 212.421L63.073 220.526L59.6481 201Z" stroke="white" stroke-width="2" stroke-linecap="round" stroke-linejoin="round"/>
<path d="M238.116 104L236.086 123.526L221.691 113.026L231.472 126.474H218L231.472 130.711L224.275 141.579L234.425 135.868L231.472 153L239.777 136.974L247.897 147.474L246.236 135.868L261 132.553L245.313 129.421L259.155 115.421L241.622 123.526L238.116 104Z" stroke="white" stroke-width="2" stroke-linecap="round" stroke-linejoin="round"/>
<path d="M174.116 46L172.086 65.5263L157.691 55.0263L167.472 68.4737H154L167.472 72.7105L160.275 83.5789L170.425 77.8684L167.472 95L175.777 78.9737L183.897 89.4737L182.236 77.8684L197 74.5526L181.313 71.4211L195.155 57.4211L177.622 65.5263L174.116 46Z" stroke="white" stroke-width="2" stroke-linecap="round" stroke-linejoin="round"/>
</svg>
