<svg width="188" height="106" viewBox="0 0 188 106" fill="none" xmlns="http://www.w3.org/2000/svg">
<path d="M31.8478 94.4596C34.917 84.1598 44.5264 70.5988 30.8139 62.4795C40.3413 67.3855 42.1959 71.1966 45.2896 71.5217C47.0703 71.713 49.6143 70.5128 50.0574 68.3228C49.483 67.4573 48.677 66.6504 47.6694 65.9319C46.7749 66.9456 45.2486 67.7394 43.7797 67.5003C32.9885 65.7693 20.6628 56.904 11.9806 51.8832C4.13547 47.3454 -6.07305 43.2761 4.59502 37.4568C10.2245 34.3774 21.4752 34.1957 28.672 33.5836C39.1432 32.6942 43.1478 34.1144 43.8371 35.6684C39.9392 43.1805 54.1031 55.1539 59.3797 61.9392C53.2989 57.583 47.4232 55.7229 42.68 56.3828C40.1443 56.7462 38.1092 57.6882 37.9204 59.6009L40.7516 61.8531C41.9817 60.7197 43.9166 59.9075 46.1513 59.5866C61.8908 57.8699 61.9318 71.2396 59.8146 77.3028C57.4758 84.0211 51.075 105.19 38.5851 105.993C34.8841 106.261 31.5278 98.6197 31.8478 94.4596Z" fill="white"/>
<path d="M82.0628 50.4398L78.1731 53.9926C78.3372 67.4914 74.5706 81.1719 72.3303 94.6037L59.7337 98.673C63.5168 86.5561 69.3678 73.9228 69.8274 61.6099C68.2764 63.0444 67.3655 63.7904 64.797 64.4072C59.6188 56.8856 39.9322 38.6672 53.7514 31.6955C65.1088 26.2252 70.7054 17.5464 77.5987 9.99609C71.2717 22.2421 79.3712 38.0361 82.0628 50.4398Z" fill="white"/>
<path d="M93.5917 65.929C93.2803 65.9146 92.9675 65.9146 92.6562 65.929C92.5905 73.5255 92.5194 81.1236 92.4428 88.7234C87.3304 88.9099 85.2049 90.4591 80.4946 91.9797C82.0866 76.157 85.2788 60.057 83.3914 44.2295C81.9143 31.8592 76.4653 18.48 81.0772 6.20535C89.6363 -2.22003 96.8085 -1.98094 105.146 6.40618C109.84 18.6426 104.325 32.0266 102.791 44.3634C100.871 60.1431 104.128 76.2527 105.745 92.0467C101.043 90.5309 98.9257 88.9959 93.8133 88.7329L93.5917 65.929ZM93.4932 55.6435C93.4112 45.8888 93.4029 36.1389 93.3209 26.389H93.0173C92.9024 36.1389 92.8531 45.8888 92.7711 55.6387C93.0117 55.6314 93.2529 55.633 93.4932 55.6435Z" fill="white"/>
<path d="M119.424 64.7099C121.607 76.7694 127.778 88.7858 132.431 100.597C128.065 99.2912 125.964 98.5644 121.681 97.1873C119.093 87.6685 116.538 78.1481 114.016 68.6261L113.507 68.2483C115.813 77.7592 118.152 87.2652 120.425 96.7808L108.034 92.7833C106.393 77.5392 102.068 61.5779 105.03 46.3624C107.254 34.9437 114.566 21.4688 108.616 10.2031L120.926 23.635C130.773 34.2743 140.883 37.8223 131.692 50.4126C128.117 55.3222 124.019 60.0973 119.424 64.7099ZM116.142 51.6367C118.251 46.9076 118.932 44.5406 118.538 44.2011L118.3 43.9955C116.084 49.1837 113.901 54.3288 112.006 59.56L112.047 59.5982C112.334 59.8708 113.442 57.6616 116.133 51.6367H116.142Z" fill="white"/>
<path d="M149.245 66.0626C147.77 66.6312 146.12 67.0274 144.386 67.2293C141.925 78.562 149.441 91.7547 153.028 102.963C149.302 104.785 146.151 104.732 141.006 103.193C137.042 91.4057 129.944 78.4663 130.805 66.4834L124.24 65.0489C131.741 55.3085 148.982 41.9006 137.329 32.1172C152.505 33.3923 167.687 34.6244 182.874 35.8135C203.233 41.3602 156.893 61.6538 149.245 66.0626Z" fill="white"/>
</svg>
