<svg width="310" height="175" viewBox="0 0 310 175" fill="none" xmlns="http://www.w3.org/2000/svg">
<path d="M52.4647 155.661C57.5206 138.688 73.3508 116.341 50.7613 102.961C66.4563 111.046 69.5115 117.326 74.608 117.862C77.5415 118.177 81.7323 116.199 82.4623 112.59C81.516 111.164 80.1883 109.835 78.5284 108.651C77.0549 110.321 74.5404 111.629 72.1206 111.235C54.3437 108.383 34.0389 93.7736 19.7363 85.4998C6.81259 78.0219 -10.0045 71.3162 7.56963 61.7264C16.8433 56.6519 35.3772 56.3524 47.233 55.3438C64.4826 53.8782 71.0797 56.2185 72.2152 58.7794C65.7939 71.1586 89.1269 90.8896 97.8193 102.071C87.8021 94.8925 78.1228 91.8273 70.3091 92.9147C66.1319 93.5135 62.7793 95.0658 62.4684 98.2178L67.1323 101.929C69.1587 100.061 72.3462 98.7229 76.0275 98.1941C101.956 95.3653 102.024 117.397 98.5358 127.389C94.683 138.46 84.1386 173.344 63.5634 174.667C57.4665 175.109 51.9374 162.517 52.4647 155.661Z" fill="#CF00CF"/>
<path d="M135.186 83.1199L128.778 88.9746C129.048 111.219 122.843 133.763 119.153 155.898L98.4017 162.603C104.634 142.636 114.272 121.818 115.03 101.527C112.475 103.891 110.974 105.12 106.743 106.137C98.2125 93.7419 65.7815 63.7199 88.5467 52.2311C107.256 43.2167 116.476 28.9148 127.832 16.4727C117.409 36.6528 130.752 62.6798 135.186 83.1199Z" fill="#CF00CF"/>
<path d="M154.178 108.644C153.666 108.621 153.15 108.621 152.637 108.644C152.529 121.163 152.412 133.684 152.286 146.207C143.864 146.515 140.363 149.068 132.603 151.573C135.225 125.499 140.484 98.968 137.375 72.8859C134.942 52.5009 125.965 30.4532 133.563 10.2258C147.663 -3.65838 159.478 -3.2644 173.213 10.5568C180.945 30.7211 171.861 52.7767 169.333 73.1065C166.169 99.1098 171.536 125.657 174.199 151.684C166.453 149.186 162.965 146.657 154.543 146.223L154.178 108.644ZM154.016 91.695C153.881 75.6202 153.868 59.5533 153.732 43.4864H153.232C153.043 59.5533 152.962 75.6202 152.827 91.6871C153.223 91.675 153.62 91.6776 154.016 91.695Z" fill="#CF00CF"/>
<path d="M196.734 106.63C200.33 126.503 210.496 146.305 218.161 165.768C210.969 163.617 207.508 162.419 200.451 160.15C196.189 144.464 191.98 128.775 187.825 113.084L186.987 112.461C190.786 128.134 194.638 143.799 198.383 159.48L177.97 152.893C175.266 127.772 168.142 101.469 173.022 76.3956C176.686 57.5786 188.731 35.3734 178.93 16.8086L199.208 38.9429C215.43 56.4755 232.085 62.3223 216.944 83.0698C211.054 91.1604 204.304 99.0292 196.734 106.63ZM191.326 85.087C194.801 77.2939 195.923 73.3934 195.274 72.8339L194.882 72.4951C191.232 81.0447 187.636 89.5233 184.513 98.1438L184.581 98.2068C185.054 98.656 186.879 95.0155 191.313 85.087H191.326Z" fill="#CF00CF"/>
<path d="M245.859 108.861C243.43 109.798 240.712 110.451 237.856 110.783C233.8 129.458 246.183 151.199 252.091 169.669C245.954 172.671 240.762 172.584 232.286 170.047C225.757 150.623 214.063 129.301 215.483 109.554L204.668 107.19C217.024 91.1389 245.426 69.0439 226.23 52.9219C251.23 55.0232 276.24 57.0535 301.258 59.013C334.797 68.1535 258.458 101.595 245.859 108.861Z" fill="#CF00CF"/>
</svg>
