<svg width="106" height="122" viewBox="0 0 106 122" fill="none" xmlns="http://www.w3.org/2000/svg">
<path d="M71.3729 1L68.4802 25.5731L48.9548 13.1032L61.9718 30.8911L41 35.2923L60.887 38.7765L51.1243 56.9312L67.7571 44.0946L73.1808 65L75.5311 42.2607L93.2486 54.7307L81.1356 37.6762L105 32.7249L80.0508 30.8911L93.2486 10.5358L74.8079 25.5731L71.3729 1Z" stroke="#CF00CF" stroke-width="2" stroke-linecap="round" stroke-linejoin="round"/>
<path d="M24.7288 52L22.4689 71.1977L7.21469 61.4556L17.3842 75.3524L1 78.7908L16.5367 81.5129L8.9096 95.6963L21.904 85.6676L26.1412 102L27.9774 84.235L41.8192 93.9771L32.3559 80.6533L51 76.7851L31.5085 75.3524L41.8192 59.4499L27.4124 71.1977L24.7288 52Z" stroke="white" stroke-width="2" stroke-linecap="round" stroke-linejoin="round"/>
<path d="M80.3051 74L78.1808 92.0458L63.8418 82.8883L73.4011 95.9513L58 99.1834L72.6045 101.742L65.435 115.074L77.6497 105.648L81.6328 121L83.3588 104.301L96.3701 113.458L87.4746 100.934L105 97.298L86.678 95.9513L96.3701 81.0029L82.8277 92.0458L80.3051 74Z" stroke="#CF00CF" stroke-width="2" stroke-linecap="round" stroke-linejoin="round"/>
</svg>
