<svg width="217" height="67" viewBox="0 0 217 67" fill="none" xmlns="http://www.w3.org/2000/svg">
<path d="M46.4813 3.14844L30.3554 16.9163L13.5644 3.14844L22.5418 26.8225L3.75586 26.1509L19.0506 35.5534L13.5644 52.6793L24.3705 44.62L30.3554 59.0595L36.0077 45.7953L52.2559 66.1484L42.6576 45.7953L58.7559 48.1484L47.4788 38.5756L64.7559 32.1484L47.4788 28.6694L59.7559 15.1484L41.6601 19.267L46.4813 3.14844Z" fill="#CF00CF" stroke="white" stroke-width="2"/>
<path d="M120.481 3.14844L104.355 16.9163L87.5644 3.14844L96.5418 26.8225L77.7559 26.1509L93.0506 35.5534L87.5644 52.6793L98.3705 44.62L104.355 59.0595L110.008 45.7953L126.256 66.1484L116.658 45.7953L132.756 48.1484L121.479 38.5756L138.756 32.1484L121.479 28.6694L133.756 15.1484L115.66 19.267L120.481 3.14844Z" fill="#CF00CF" stroke="white" stroke-width="2"/>
<path d="M194.481 3.14844L178.355 16.9163L161.564 3.14844L170.542 26.8225L151.756 26.1509L167.051 35.5534L161.564 52.6793L172.37 44.62L178.355 59.0595L184.008 45.7953L200.256 66.1484L190.658 45.7953L206.756 48.1484L195.479 38.5756L212.756 32.1484L195.479 28.6694L207.756 15.1484L189.66 19.267L194.481 3.14844Z" fill="#CF00CF" stroke="white" stroke-width="2"/>
</svg>
